<?xml version="1.0" encoding="UTF-8"?>
<svg version="1.1" xmlns="http://www.w3.org/2000/svg" width="1888" height="292">
<path d="M0 0 C623.04 0 1246.08 0 1888 0 C1888 96.36 1888 192.72 1888 292 C1264.96 292 641.92 292 0 292 C0 195.64 0 99.28 0 0 Z " fill="#FEFEFE" transform="translate(0,0)"/>
<path d="M0 0 C4.45936282 -0.3913152 6.97791276 0.78240738 10.8125 3 C12.27623047 3.8353125 12.27623047 3.8353125 13.76953125 4.6875 C14.50558594 5.120625 15.24164063 5.55375 16 6 C16 6.66 16 7.32 16 8 C19.96 8.495 19.96 8.495 24 9 C24 9.66 24 10.32 24 11 C26.31 11.33 28.62 11.66 31 12 C31 12.66 31 13.32 31 14 C31.66 14 32.32 14 33 14 C33.86625 14.8971875 33.86625 14.8971875 34.75 15.8125 C37.28586216 18.27792155 39.7974694 19.54430427 43 21 C43 21.66 43 22.32 43 23 C43.99 23.0825 44.98 23.165 46 23.25 C50.47456948 23.86308007 54.09570685 25.81968045 58 28 C58 28.66 58 29.32 58 30 C61.58752742 31.86551426 65.27812193 33.42535928 69 35 C69 35.66 69 36.32 69 37 C70.60875 37.185625 70.60875 37.185625 72.25 37.375 C75.37863615 37.89643936 77.33480424 38.40088254 80 40 C80 40.99 80 41.98 80 43 C80.52851563 43.10054687 81.05703125 43.20109375 81.6015625 43.3046875 C84.74454237 44.21584453 87.45995175 45.63745822 90.375 47.125 C91.61571049 47.75685403 92.85660159 48.3883535 94.09765625 49.01953125 C94.73590332 49.34518066 95.37415039 49.67083008 96.03173828 50.00634766 C98.01132971 51.00571966 100.00117503 51.98084482 101.99609375 52.94921875 C102.63562988 53.26165527 103.27516602 53.5740918 103.93408203 53.89599609 C105.73206158 54.77325308 107.53200225 55.64648722 109.33203125 56.51953125 C112 58 112 58 113 60 C115.13050108 61.14970017 117.25222438 62.21513841 119.4375 63.25 C125.50109431 66.19565997 131.26593085 69.45082661 137 73 C142.19282 76.23719776 142.19282 76.23719776 148 78 C148 78.66 148 79.32 148 80 C149.10794922 80.16048828 149.10794922 80.16048828 150.23828125 80.32421875 C153.18441767 81.04512625 154.76891287 82.02011366 157.1875 83.8125 C161.27936092 86.68711826 165.30660523 88.44621381 170.03125 90.04296875 C170.6809375 90.35878906 171.330625 90.67460938 172 91 C172.33 91.99 172.66 92.98 173 94 C174.32 94 175.64 94 177 94 C177 94.66 177 95.32 177 96 C177.73734375 96.10699219 178.4746875 96.21398437 179.234375 96.32421875 C182.18618055 97.04549327 183.81436482 98.03087797 186.25 99.8125 C189.97175641 102.40476815 193.62159671 104.25492136 197.796875 105.9921875 C200.78828624 107.36059902 203.4563857 109.10778319 206.17578125 110.94921875 C208.10664004 112.06142649 209.82448277 112.56297557 212 113 C212 113.66 212 114.32 212 115 C212.598125 115.144375 213.19625 115.28875 213.8125 115.4375 C215.56150404 115.8872439 217.28677023 116.42892341 219 117 C219.33 117.66 219.66 118.32 220 119 C222.17170738 120.1963544 224.33053382 121.30326672 226.5625 122.375 C227.20002197 122.68808105 227.83754395 123.00116211 228.49438477 123.32373047 C231.14211698 124.62284669 233.79816875 125.90388988 236.4609375 127.171875 C239.75003006 128.75791963 242.64741089 130.41621002 245.5625 132.625 C248.91037019 135.13204565 251.93551225 136.08756398 256 137 C256.33 138.32 256.66 139.64 257 141 C255.948125 141.5775 254.89625 142.155 253.8125 142.75 C251.48297828 144.06850929 249.62289082 145.31909238 247.5625 147.0625 C244.75729967 149.18350513 242.22327606 150.14243162 238.9296875 151.2734375 C236.42744327 152.21557804 234.26879951 153.59868265 232 155 C231.34 155 230.68 155 230 155 C230 155.66 230 156.32 230 157 C229.32453125 157.26554688 228.6490625 157.53109375 227.953125 157.8046875 C226.61507812 158.33449219 226.61507812 158.33449219 225.25 158.875 C223.92742187 159.39707031 223.92742187 159.39707031 222.578125 159.9296875 C220.3259752 160.8646709 218.16350541 161.87780794 216 163 C216 163.66 216 164.32 216 165 C212.84722385 166.61483657 209.70352512 168.12483153 206.4375 169.5 C203.41699724 170.81803757 200.80680476 172.29298712 198 174 C196.42243948 174.8853656 194.83871428 175.75980847 193.25 176.625 C191.83460938 177.39650391 191.83460938 177.39650391 190.390625 178.18359375 C187.80503549 179.56873099 185.21253984 180.93377123 182.609375 182.28515625 C181.84850586 182.68202637 181.08763672 183.07889648 180.30371094 183.48779297 C178.78863713 184.27680025 177.27111244 185.06112213 175.75097656 185.84033203 C175.0494043 186.20626465 174.34783203 186.57219727 173.625 186.94921875 C172.99851562 187.27237061 172.37203125 187.59552246 171.7265625 187.9284668 C169.86279678 189.08515058 168.52670535 190.43548899 167 192 C165.1328125 192.84375 165.1328125 192.84375 163.125 193.5 C159.79722414 194.65615742 157.00373527 196.14475175 154 198 C153.34 198 152.68 198 152 198 C152 198.66 152 199.32 152 200 C150.515 200.5878125 150.515 200.5878125 149 201.1875 C146.18874293 202.38426004 143.68485699 203.77205088 141.125 205.4375 C137.62869497 207.69862391 134.07077357 209.33690527 130.2421875 210.953125 C127.20667405 212.37040306 124.48866963 214.16000346 121.7265625 216.046875 C120 217 120 217 117 217 C117 217.66 117 218.32 117 219 C116.27425781 219.27070313 115.54851562 219.54140625 114.80078125 219.8203125 C112.06734468 220.97163446 109.70116951 222.3075098 107.1875 223.875 C103.53410585 226.10702926 99.87051642 228.13135185 96.015625 229.98828125 C92.92710924 231.53852462 89.95918342 233.29655063 86.98046875 235.046875 C85 236 85 236 82 236 C82 236.66 82 237.32 82 238 C79.730384 239.14829977 77.45939222 240.29371978 75.1875 241.4375 C74.54490234 241.76298828 73.90230469 242.08847656 73.24023438 242.42382812 C70.51734534 243.79232676 67.89550206 245.03483265 65 246 C65 246.66 65 247.32 65 248 C61.65308377 250.40559604 58.13090379 251.67696766 54.28125 253.0703125 C46.56316151 256.21569788 39.42051798 260.88401362 32.20605469 265.03125 C28.53926685 267.13577254 24.84686718 269.18222807 21.125 271.1875 C17.23356046 273.29082594 13.46596163 275.51665553 9.75390625 277.921875 C4.6202484 281.07753105 4.6202484 281.07753105 1.5 280.6875 C0.675 280.460625 -0.15 280.23375 -1 280 C-1.763125 279.814375 -2.52625 279.62875 -3.3125 279.4375 C-3.869375 279.293125 -4.42625 279.14875 -5 279 C-5 278.34 -5 277.68 -5 277 C-5.99 277 -6.98 277 -8 277 C-8 276.34 -8 275.68 -8 275 C-10.06062762 273.96733923 -12.12323879 272.93936915 -14.19140625 271.921875 C-19.61863877 269.2395525 -24.94400261 266.4127165 -30.2421875 263.484375 C-33.80720791 261.56552549 -37.44241792 259.80958143 -41.1015625 258.078125 C-43 257 -43 257 -44 255 C-46.2079259 253.97520995 -46.2079259 253.97520995 -48.8125 253.0625 C-52.32453618 251.7811515 -55.19088649 250.50790321 -58 248 C-58 247.34 -58 246.68 -58 246 C-58.52207031 245.88269531 -59.04414063 245.76539063 -59.58203125 245.64453125 C-62.68362777 244.81777289 -65.66889096 243.77933731 -68.6875 242.6875 C-70.42580078 242.07455078 -70.42580078 242.07455078 -72.19921875 241.44921875 C-75 240 -75 240 -75.89453125 237.83203125 C-75.92933594 237.22746094 -75.96414062 236.62289062 -76 236 C-77.010625 235.938125 -78.02125 235.87625 -79.0625 235.8125 C-82.8904713 235.26892807 -85.03712619 233.74259862 -88.0390625 231.40625 C-92.77229214 228.01190205 -98.28443182 225.20880982 -104 224 C-104 223.34 -104 222.68 -104 222 C-104.57234375 221.86722656 -105.1446875 221.73445312 -105.734375 221.59765625 C-107.97650875 221.00619683 -110.08579619 220.26711146 -112.25 219.4375 C-112.95640625 219.16808594 -113.6628125 218.89867187 -114.390625 218.62109375 C-115.18726563 218.31365234 -115.18726563 218.31365234 -116 218 C-116 217.34 -116 216.68 -116 216 C-116.99 215.6596875 -116.99 215.6596875 -118 215.3125 C-121.26289362 213.88498404 -124.07311697 212.09510104 -127.0625 210.17578125 C-129.28716086 208.82573504 -131.54073736 207.84537153 -134 207 C-134 206.01 -134 205.02 -134 204 C-134.78375 203.938125 -135.5675 203.87625 -136.375 203.8125 C-144.82803124 201.91785507 -152.21423164 196.78795721 -159.47045898 192.2109375 C-163.83319218 189.51212228 -168.15012772 187.68086081 -173 186 C-173 185.34 -173 184.68 -173 184 C-173.84691406 183.83757812 -173.84691406 183.83757812 -174.7109375 183.671875 C-177.35615178 182.89546398 -179.29553812 181.7220378 -181.625 180.25 C-186.60804457 177.18008861 -191.72812542 174.5349865 -197 172 C-197 171.34 -197 170.68 -197 170 C-197.5775 169.855625 -198.155 169.71125 -198.75 169.5625 C-200.83333333 169.04166667 -202.91666667 168.52083333 -205 168 C-205 167.34 -205 166.68 -205 166 C-205.80308594 165.77183594 -206.60617188 165.54367188 -207.43359375 165.30859375 C-211.9249653 163.66060966 -215.91157861 161.4222937 -220.0625 159.0625 C-220.85205078 158.61970703 -221.64160156 158.17691406 -222.45507812 157.72070312 C-224.64253308 156.49037431 -226.82211452 155.24716519 -229 154 C-230.48306641 153.16275391 -230.48306641 153.16275391 -231.99609375 152.30859375 C-234 151 -234 151 -235 149 C-236.88013106 147.87775145 -236.88013106 147.87775145 -239.0625 146.875 C-239.79597656 146.52179688 -240.52945313 146.16859375 -241.28515625 145.8046875 C-241.85105469 145.53914062 -242.41695312 145.27359375 -243 145 C-243 144.34 -243 143.68 -243 143 C-244.65 142.67 -246.3 142.34 -248 142 C-248 141.01 -248 140.02 -248 139 C-244.73438176 135.94295227 -241.26644469 133.98040547 -237.25 132.0625 C-232.06160021 129.53126612 -227.02076875 126.8453532 -222 124 C-220.74642909 123.29887926 -219.49248948 122.59841752 -218.23828125 121.8984375 C-209.4847819 117.01027453 -209.4847819 117.01027453 -200.875 111.875 C-196.44290685 109.17396007 -191.83380241 106.88861254 -187.17797852 104.60717773 C-182.77527017 102.43312672 -178.58741073 100.03130678 -174.41015625 97.45703125 C-171.00042309 95.39571769 -167.49512251 93.5265441 -163.98828125 91.63671875 C-160.6092343 89.78597277 -157.27328889 87.86455473 -153.9375 85.9375 C-149.11535232 83.15539123 -144.23140973 80.58174513 -139.2265625 78.14453125 C-136.39123696 76.68707444 -133.75573369 74.98692598 -131.078125 73.26171875 C-126.52316832 70.49620934 -121.66286078 68.140561 -116.765625 66.04296875 C-114.6542913 65.05618192 -114.6542913 65.05618192 -114 62 C-113.01 62 -112.02 62 -111 62 C-111 61.34 -111 60.68 -111 60 C-109.41925436 59.18247697 -107.83528777 58.37118003 -106.25 57.5625 C-104.92742187 56.88380859 -104.92742187 56.88380859 -103.578125 56.19140625 C-101.35801434 55.16544602 -99.38555381 54.48491397 -97 54 C-97 53.34 -97 52.68 -97 52 C-91.375 49 -91.375 49 -88 49 C-88 48.34 -88 47.68 -88 47 C-86.5437455 46.32880451 -85.08492133 45.66318193 -83.625 45 C-82.81289062 44.62875 -82.00078125 44.2575 -81.1640625 43.875 C-79 43 -79 43 -77 43 C-77 42.34 -77 41.68 -77 41 C-76.31035156 40.70867188 -75.62070313 40.41734375 -74.91015625 40.1171875 C-69.22117149 37.63557275 -64.16090602 34.89907085 -59.0703125 31.359375 C-55.27473602 28.86718516 -51.61432161 27 -47 27 C-47 26.34 -47 25.68 -47 25 C-45.56570999 24.32645501 -44.12742943 23.66140299 -42.6875 23 C-41.48673828 22.443125 -41.48673828 22.443125 -40.26171875 21.875 C-38 21 -38 21 -35 21 C-35 20.34 -35 19.68 -35 19 C-28.375 15.125 -28.375 15.125 -25 14 C-25 13.34 -25 12.68 -25 12 C-24.16597656 11.69707031 -23.33195313 11.39414062 -22.47265625 11.08203125 C-16.27227427 8.77375617 -10.45180065 6.38082115 -4.8046875 2.91796875 C-3 2 -3 2 0 2 C0 1.34 0 0.68 0 0 Z " fill="#4968AD" transform="translate(259,8)"/>
<path d="M0 0 C0.99 0.99 0.99 0.99 2 2 C4.02500253 2.50045468 4.02500253 2.50045468 6.375 2.8125 C21.50688767 5.60742297 34.4266095 14.26939638 46 24 C46.33 24.66 46.66 25.32 47 26 C47.721875 26.4125 48.44375 26.825 49.1875 27.25 C52.7372663 29.45874347 55.17575952 31.91303947 58 35 C58 35.66 58 36.32 58 37 C58.66 37 59.32 37 60 37 C60.32613281 37.69867188 60.65226563 38.39734375 60.98828125 39.1171875 C61.42527344 40.02726562 61.86226562 40.93734375 62.3125 41.875 C62.95638672 43.23238281 62.95638672 43.23238281 63.61328125 44.6171875 C64.9199388 47.26449476 64.9199388 47.26449476 68 49 C68.6875 52.125 68.6875 52.125 69 55 C69.66 55 70.32 55 71 55 C71.34933594 55.99902344 71.69867188 56.99804688 72.05859375 58.02734375 C72.51807919 59.33078205 72.97772279 60.6341646 73.4375 61.9375 C73.78264648 62.9265332 73.78264648 62.9265332 74.13476562 63.93554688 C75.11964592 67.22328622 75.11964592 67.22328622 77 70 C77.37322245 72.30639814 77.69891805 74.62058027 78 76.9375 C78.48112322 81.62307486 78.48112322 81.62307486 80 86 C81.29480105 94.29535875 80.99084664 102.58247742 80.625 110.9375 C80.55925781 112.74444336 80.55925781 112.74444336 80.4921875 114.58789062 C80.10496453 124.23081812 80.10496453 124.23081812 79 128 C78.34 128 77.68 128 77 128 C77.01160156 128.62648437 77.02320313 129.25296875 77.03515625 129.8984375 C77.04417969 130.71570313 77.05320312 131.53296875 77.0625 132.375 C77.07410156 133.18710938 77.08570313 133.99921875 77.09765625 134.8359375 C77 137 77 137 76 139 C75.34 139 74.68 139 74 139 C73.89042969 139.59167969 73.78085937 140.18335938 73.66796875 140.79296875 C72.52321186 146.49813927 71.21456745 150.78543255 67 155 C66.731875 155.763125 66.46375 156.52625 66.1875 157.3125 C64.71392421 160.64743469 62.59720521 162.46614126 60 165 C58.9935725 166.66279327 57.99414593 168.32983484 57 170 C53.27379996 174.87272313 49.03613139 179.45653642 44 183 C43.34 183 42.68 183 42 183 C42 183.66 42 184.32 42 185 C40.13671875 186.5078125 40.13671875 186.5078125 37.6875 188.125 C36.88699219 188.66382813 36.08648437 189.20265625 35.26171875 189.7578125 C33 191 33 191 30 191 C30 191.66 30 192.32 30 193 C26.63316085 195.43160605 25.26649636 196 21 196 C21 196.66 21 197.32 21 198 C19.02 198.33 17.04 198.66 15 199 C15 199.66 15 200.32 15 201 C5.62487419 204.22418667 -3.00656988 206.83688634 -13 207 C-13.84546387 207.02433105 -14.69092773 207.04866211 -15.56201172 207.07373047 C-26.8495541 207.38274158 -37.15767458 207.4491693 -48 204 C-51.51327883 203.10537889 -55.04445602 202.28256357 -58.57202148 201.44628906 C-61.93758821 200.61926133 -64.98481909 199.73065231 -68 198 C-68 197.34 -68 196.68 -68 196 C-68.99 196 -69.98 196 -71 196 C-71 195.34 -71 194.68 -71 194 C-72.4540625 193.6596875 -72.4540625 193.6596875 -73.9375 193.3125 C-78.70013658 191.97118602 -82.75472972 189.48145126 -87 187 C-87.66 186.67 -88.32 186.34 -89 186 C-89.45375 185.195625 -89.9075 184.39125 -90.375 183.5625 C-92.16727775 180.73621585 -93.09912268 180.40648597 -96 179 C-100 174.66666667 -100 174.66666667 -100 171 C-100.928125 170.79375 -101.85625 170.5875 -102.8125 170.375 C-106 169 -106 169 -107.8125 166.125 C-108.72061673 163.73521913 -109.51843053 161.50416124 -110 159 C-110.66 159 -111.32 159 -112 159 C-112.67667998 157.75539217 -113.34094719 156.50403104 -114 155.25 C-114.37125 154.55390625 -114.7425 153.8578125 -115.125 153.140625 C-116 151 -116 151 -116 147 C-116.66 147 -117.32 147 -118 147 C-121.42857143 139.71428571 -121.42857143 139.71428571 -121 135 C-121.66 135 -122.32 135 -123 135 C-127.37007786 120.29564995 -127.39645741 106.22876957 -126.625 91 C-126.59422363 90.30648437 -126.56344727 89.61296875 -126.53173828 88.8984375 C-126.26680272 84.342865 -125.30827869 80.35597336 -124 76 C-123.58631797 73.69410572 -123.20965516 71.38118221 -122.875 69.0625 C-122.70742187 67.91910156 -122.53984375 66.77570313 -122.3671875 65.59765625 C-122.24601563 64.74042969 -122.12484375 63.88320312 -122 63 C-121.34 63 -120.68 63 -120 63 C-119.505 60.03 -119.505 60.03 -119 57 C-118.34 57 -117.68 57 -117 57 C-116.87625 56.278125 -116.7525 55.55625 -116.625 54.8125 C-115.999525 51.99786251 -115.2900369 49.5800738 -114 47 C-112.515 46.505 -112.515 46.505 -111 46 C-108.22604031 43.00412353 -107.14626804 39.87967644 -106 36 C-105.34 36 -104.68 36 -104 36 C-103.67 35.01 -103.34 34.02 -103 33 C-102.34 33 -101.68 33 -101 33 C-101 32.34 -101 31.68 -101 31 C-100.01 30.67 -99.02 30.34 -98 30 C-96.7934375 28.7625 -96.7934375 28.7625 -95.5625 27.5 C-93.16304524 25.15906852 -92.22865886 24.35873987 -89 24 C-88.93425781 23.40316406 -88.86851562 22.80632812 -88.80078125 22.19140625 C-87.67599442 19.11333106 -86.02286831 18.4942542 -83.1875 16.9375 C-79.45796669 14.86179453 -79.45796669 14.86179453 -75.94921875 12.4453125 C-69.99551357 8.03074153 -61.41300933 4.56394063 -54 5 C-54 4.34 -54 3.68 -54 3 C-37.38995499 -2.84291406 -17.38658473 -2.29797753 0 0 Z " fill="#FCFDFD" transform="translate(284,45)"/>
<path d="M0 0 C10.02375 -0.0825 20.0475 -0.165 30.375 -0.25 C35.06275635 -0.30462402 35.06275635 -0.30462402 39.84521484 -0.36035156 C63.42907971 -0.52279603 63.42907971 -0.52279603 73.9140625 1.765625 C74.98894424 1.99955963 74.98894424 1.99955963 76.08554077 2.23822021 C79.03448778 3.01030239 80.6576691 3.44278943 82.29052734 6.10058594 C82.52465332 6.72739258 82.7587793 7.35419922 83 8 C85.44063441 8.67147918 85.44063441 8.67147918 88 9 C88.99 9.66 89.98 10.32 91 11 C91 11.66 91 12.32 91 13 C91.556875 13.268125 92.11375 13.53625 92.6875 13.8125 C93.8321875 14.4003125 93.8321875 14.4003125 95 15 C95.825 15.40605469 96.65 15.81210938 97.5 16.23046875 C100.56255525 18.39818364 101.15975309 19.97060204 102.3125 23.5 C102.63863281 24.4590625 102.96476563 25.418125 103.30078125 26.40625 C104 29 104 29 104 32 C104.66 32 105.32 32 106 32 C106.11735877 35.97891352 106.18763654 39.9573746 106.25 43.9375 C106.28351563 45.05447266 106.31703125 46.17144531 106.3515625 47.32226562 C106.43126682 54.11705915 106.1041549 60.3096774 102 66 C100.515 66.495 100.515 66.495 99 67 C98.814375 67.86625 98.814375 67.86625 98.625 68.75 C97.69132769 72.11122032 95.57225386 73.74143563 93 76 C92.34 76 91.68 76 91 76 C91 76.66 91 77.32 91 78 C89.5390625 79.2890625 89.5390625 79.2890625 87.625 80.625 C86.99851562 81.07101563 86.37203125 81.51703125 85.7265625 81.9765625 C84 83 84 83 82 83 C82 83.99 82 84.98 82 86 C82.66 86 83.32 86 84 86 C87 89.46153846 87 89.46153846 87 92 C87.66 92 88.32 92 89 92 C89.433125 92.928125 89.86625 93.85625 90.3125 94.8125 C91.77509352 97.57517665 92.82300606 98.91371414 95 101 C98 105.55555556 98 105.55555556 98 108 C98.66 108 99.32 108 100 108 C100.433125 108.928125 100.86625 109.85625 101.3125 110.8125 C102.7352747 113.90275748 102.7352747 113.90275748 104.5625 115.5 C106.64248281 117.67041684 107.11291372 120.16741548 108 123 C103.96174934 123.12406007 99.92424362 123.21455045 95.88452148 123.2746582 C94.51192898 123.29972617 93.13946898 123.33379082 91.76733398 123.37719727 C89.78949304 123.43817531 87.81065816 123.46361009 85.83203125 123.48828125 C84.04889526 123.52755737 84.04889526 123.52755737 82.22973633 123.56762695 C78.05821011 122.8344802 76.66452049 121.20962395 74 118 C71 113.65517241 71 113.65517241 71 110 C70.34 110 69.68 110 69 110 C67.47577727 108.00862846 66.07015305 106.02404915 64.6875 103.9375 C63.52626328 102.21443836 62.36394774 100.49482354 61.17211914 98.79272461 C60 97 60 97 59.06030273 95.03735352 C57.888541 92.84313653 56.97806574 91.52736036 55 90 C50.55677976 88.98908025 46.22841504 89.02262093 41.6875 89.0625 C37.500625 89.041875 33.31375 89.02125 29 89 C29 100.22 29 111.44 29 123 C19.43 123 9.86 123 0 123 C0 82.41 0 41.82 0 0 Z " fill="#4D75B5" transform="translate(836,80)"/>
<path d="M0 0 C24 0 24 0 29.3125 4.125 C30.58932738 6.05259746 31.81442797 8.01497126 33 10 C34.38574076 11.83842633 35.82319055 13.62703808 37.27026367 15.41748047 C38.67869652 17.16169709 40.05400852 18.92701239 41.421875 20.703125 C45.56370272 26.61689427 45.56370272 26.61689427 51 31 C52.00695777 32.75405546 53.01120745 34.5099923 53.98046875 36.28515625 C55.0934307 38.15714972 56.42758152 39.50620245 58 41 C58 41.66 58 42.32 58 43 C59.32 43.66 60.64 44.32 62 45 C62 45.66 62 46.32 62 47 C62.66 47 63.32 47 64 47 C64 47.66 64 48.32 64 49 C64.66 49 65.32 49 66 49 C66 50.32 66 51.64 66 53 C66.556875 53.20625 67.11375 53.4125 67.6875 53.625 C71.7748058 56.05528993 74.50461882 59.51385646 76 64 C76.804375 64.804375 77.60875 65.60875 78.4375 66.4375 C80.64973661 68.64973661 81.84198526 70.15760017 83 73 C83.66 73 84.32 73 85 73 C85 48.91 85 24.82 85 0 C94.24 0 103.48 0 113 0 C113 40.59 113 81.18 113 123 C105.08 123 97.16 123 89 123 C89 122.34 89 121.68 89 121 C88.443125 120.814375 87.88625 120.62875 87.3125 120.4375 C83.97799753 118.36470117 81.86766143 115.4368032 80 112 C80 111.01 80 110.02 80 109 C79.34 109 78.68 109 78 109 C76.50122497 107.34516392 75.07511527 105.62409488 73.6875 103.875 C71.15499417 100.69711365 68.62744127 97.54550822 65.9375 94.5 C64 92 64 92 64 89 C63.401875 88.71125 62.80375 88.4225 62.1875 88.125 C60 87 60 87 57 85 C57 84.34 57 83.68 57 83 C56.01 82.67 55.02 82.34 54 82 C52.89453125 80.50390625 52.89453125 80.50390625 51.8125 78.5625 C48.68181067 73.3104182 44.87846228 68.71350487 41 64 C39.78957031 62.50919922 39.78957031 62.50919922 38.5546875 60.98828125 C34.44588061 55.84389518 34.44588061 55.84389518 30 51 C29.67 74.76 29.34 98.52 29 123 C19.43 123 9.86 123 0 123 C0 82.41 0 41.82 0 0 Z " fill="#4973B3" transform="translate(1200,80)"/>
<path d="M0 0 C1.86205078 -0.0009668 1.86205078 -0.0009668 3.76171875 -0.00195312 C5.70111328 0.02801758 5.70111328 0.02801758 7.6796875 0.05859375 C8.98035156 0.05150391 10.28101563 0.04441406 11.62109375 0.03710938 C18.77659508 0.08550767 18.77659508 0.08550767 21.5546875 0.49609375 C24.78520574 5.34187111 25.76550411 10.15451776 26.4921875 15.87109375 C27.02155036 19.54768424 27.53019855 22.88967168 28.9921875 26.30859375 C30.9253943 30.87445906 31.58036002 35.70054902 32.42285156 40.55493164 C33.1086714 44.40520385 33.93955005 48.05834547 35.2421875 51.74609375 C36.5546875 55.49609375 36.5546875 55.49609375 36.5546875 59.49609375 C37.2146875 59.49609375 37.8746875 59.49609375 38.5546875 59.49609375 C38.68746094 60.49511719 38.82023437 61.49414062 38.95703125 62.5234375 C39.22193359 64.45896484 39.22193359 64.45896484 39.4921875 66.43359375 C39.75322266 68.36525391 39.75322266 68.36525391 40.01953125 70.3359375 C40.21631173 73.35075688 40.21631173 73.35075688 41.5546875 74.49609375 C41.78896528 76.51203957 41.96804874 78.53456775 42.1171875 80.55859375 C42.24287109 82.21568359 42.24287109 82.21568359 42.37109375 83.90625 C42.43167969 84.76089844 42.49226563 85.61554688 42.5546875 86.49609375 C43.2146875 86.49609375 43.8746875 86.49609375 44.5546875 86.49609375 C45.5446875 96.89109375 45.5446875 96.89109375 46.5546875 107.49609375 C47.2146875 107.49609375 47.8746875 107.49609375 48.5546875 107.49609375 C49.05873558 109.59929438 49.55779258 111.70369166 50.0546875 113.80859375 C50.333125 114.98035156 50.6115625 116.15210938 50.8984375 117.359375 C51.5546875 120.49609375 51.5546875 120.49609375 51.5546875 123.49609375 C42.3146875 123.49609375 33.0746875 123.49609375 23.5546875 123.49609375 C21.6171875 114.62109375 21.6171875 114.62109375 21.01196289 111.82861328 C20.77207642 110.7397583 20.77207642 110.7397583 20.52734375 109.62890625 C20.28383179 108.51346436 20.28383179 108.51346436 20.03540039 107.37548828 C19.60692831 105.42422251 19.60692831 105.42422251 18.5546875 103.49609375 C18.5546875 101.51609375 18.5546875 99.53609375 18.5546875 97.49609375 C-0.9153125 97.82609375 -20.3853125 98.15609375 -40.4453125 98.49609375 C-40.9403125 100.47609375 -40.9403125 100.47609375 -41.4453125 102.49609375 C-42.4353125 102.49609375 -43.4253125 102.49609375 -44.4453125 102.49609375 C-44.58646484 103.78966797 -44.58646484 103.78966797 -44.73046875 105.109375 C-45.52678975 108.88210892 -46.881302 111.40045074 -48.8828125 114.68359375 C-49.50027344 115.70839844 -50.11773438 116.73320312 -50.75390625 117.7890625 C-51.95442516 119.71044727 -53.18858108 121.61099661 -54.4453125 123.49609375 C-57.51806641 123.83666992 -57.51806641 123.83666992 -61.421875 123.7890625 C-62.44974625 123.78269524 -62.44974625 123.78269524 -63.49838257 123.77619934 C-65.68942379 123.75939128 -67.87954882 123.7217378 -70.0703125 123.68359375 C-71.55467423 123.66854954 -73.03905035 123.65486068 -74.5234375 123.64257812 C-78.16436083 123.60948165 -81.80474728 123.55768582 -85.4453125 123.49609375 C-84.14561114 120.04516256 -83.02569626 118.07647751 -80.4453125 115.49609375 C-79.72803472 113.85057413 -79.06206022 112.18187086 -78.4453125 110.49609375 C-77.79317711 109.15559323 -77.13151281 107.81948007 -76.4453125 106.49609375 C-75.7853125 106.49609375 -75.1253125 106.49609375 -74.4453125 106.49609375 C-74.3834375 105.95984375 -74.3215625 105.42359375 -74.2578125 104.87109375 C-73.30172546 102.07637779 -71.71847352 100.28461722 -69.78125 98.08984375 C-68.44988161 96.50154461 -67.35817265 94.87505129 -66.2578125 93.12109375 C-65.6596875 92.25484375 -65.0615625 91.38859375 -64.4453125 90.49609375 C-63.7853125 90.49609375 -63.1253125 90.49609375 -62.4453125 90.49609375 C-62.2596875 89.38234375 -62.2596875 89.38234375 -62.0703125 88.24609375 C-61.30888795 84.89582571 -60.45074768 82.4596358 -57.9453125 80.05859375 C-56.02946432 78.06291856 -55.39092921 76.08077942 -54.4453125 73.49609375 C-53.79317711 72.15559323 -53.13151281 70.81948007 -52.4453125 69.49609375 C-51.7853125 69.49609375 -51.1253125 69.49609375 -50.4453125 69.49609375 C-50.33058594 68.92375 -50.21585938 68.35140625 -50.09765625 67.76171875 C-49.38348894 65.28137719 -48.37223378 63.43240678 -47.0078125 61.24609375 C-46.57597656 60.5396875 -46.14414063 59.83328125 -45.69921875 59.10546875 C-45.28542969 58.574375 -44.87164063 58.04328125 -44.4453125 57.49609375 C-43.7853125 57.49609375 -43.1253125 57.49609375 -42.4453125 57.49609375 C-42.1153125 55.84609375 -41.7853125 54.19609375 -41.4453125 52.49609375 C-40.7853125 52.49609375 -40.1253125 52.49609375 -39.4453125 52.49609375 C-39.4453125 51.50609375 -39.4453125 50.51609375 -39.4453125 49.49609375 C-37.4653125 49.00109375 -37.4653125 49.00109375 -35.4453125 48.49609375 C-35.3834375 47.83609375 -35.3215625 47.17609375 -35.2578125 46.49609375 C-33.73315012 40.86657111 -30.30466106 36.35673129 -26.4453125 32.05859375 C-23.62056173 28.87984608 -21.66551093 25.52804693 -19.671875 21.78515625 C-18.42635536 19.46071514 -17.12158496 17.1905973 -15.7578125 14.93359375 C-15.36207031 14.27230469 -14.96632813 13.61101562 -14.55859375 12.9296875 C-14.19121094 12.45660156 -13.82382813 11.98351562 -13.4453125 11.49609375 C-12.7853125 11.49609375 -12.1253125 11.49609375 -11.4453125 11.49609375 C-11.3628125 10.42359375 -11.2803125 9.35109375 -11.1953125 8.24609375 C-9.83530534 1.44605794 -6.64947783 -0.01081445 0 0 Z " fill="#4C75B4" transform="translate(1587.4453125,79.50390625)"/>
<path d="M0 0 C31.02 0 62.04 0 94 0 C94 7.92 94 15.84 94 24 C72.55 24 51.1 24 29 24 C29 32.25 29 40.5 29 49 C47.81 49 66.62 49 86 49 C86 56.59 86 64.18 86 72 C67.19 72 48.38 72 29 72 C29 81.24 29 90.48 29 100 C51.11 100 73.22 100 96 100 C96 107.59 96 115.18 96 123 C64.32 123 32.64 123 0 123 C0 82.41 0 41.82 0 0 Z " fill="#4973B3" transform="translate(965,80)"/>
<path d="M0 0 C30.69 0 61.38 0 93 0 C93 7.92 93 15.84 93 24 C71.88 24 50.76 24 29 24 C29 32.25 29 40.5 29 49 C47.48 49 65.96 49 85 49 C85 56.59 85 64.18 85 72 C66.52 72 48.04 72 29 72 C29 81.24 29 90.48 29 100 C51.11 100 73.22 100 96 100 C96 107.59 96 115.18 96 123 C64.32 123 32.64 123 0 123 C0 82.41 0 41.82 0 0 Z " fill="#4F77B5" transform="translate(1083,80)"/>
<path d="M0 0 C30.03 0 60.06 0 91 0 C91 2.31 91 4.62 91 7 C90.67 7.33 90.34 7.66 90 8 C89.34 12.95 88.68 17.9 88 23 C66.55 23.33 45.1 23.66 23 24 C22.34 29.28 21.68 34.56 21 40 C19.68 42.97 18.36 45.94 17 49 C35.81 49 54.62 49 74 49 C72.86649874 61.46851385 72.86649874 61.46851385 72 65.625 C71.835 66.44226563 71.67 67.25953125 71.5 68.1015625 C71 70 71 70 70 71 C68.18944975 71.09376053 66.37522799 71.1174411 64.56225586 71.11352539 C63.40112778 71.11344986 62.23999969 71.11337433 61.04368591 71.11329651 C59.14840904 71.10555458 59.14840904 71.10555458 57.21484375 71.09765625 C55.92888809 71.0962413 54.64293243 71.09482635 53.31800842 71.09336853 C49.89356557 71.08954418 46.46916491 71.07971462 43.04473877 71.06866455 C39.55261811 71.05844864 36.06049066 71.05387053 32.56835938 71.04882812 C25.71222047 71.03809226 18.8561166 71.02049614 12 71 C11.67 75.62 11.34 80.24 11 85 C10.34 85 9.68 85 9 85 C9.01160156 85.59167969 9.02320313 86.18335938 9.03515625 86.79296875 C9.04417969 87.58316406 9.05320312 88.37335938 9.0625 89.1875 C9.07410156 89.96480469 9.08570313 90.74210937 9.09765625 91.54296875 C9 94 9 94 8 99 C29.78 99 51.56 99 74 99 C74 101.97 74 104.94 74 108 C73.67 108.33 73.34 108.66 73 109 C72.34 113.29 71.68 117.58 71 122 C39.65 122 8.3 122 -24 122 C-24 113 -24 113 -23 112 C-22.60056824 109.47804033 -22.24920152 106.97036344 -21.9375 104.4375 C-21.84662109 103.72658203 -21.75574219 103.01566406 -21.66210938 102.28320312 C-21.43760497 100.52261597 -21.21831603 98.76136522 -21 97 C-20.34 97 -19.68 97 -19 97 C-19.02964844 95.85402344 -19.05929687 94.70804687 -19.08984375 93.52734375 C-19.08886291 89.07726612 -18.43466728 84.91522321 -17.5625 80.5625 C-17.42779297 79.84384766 -17.29308594 79.12519531 -17.15429688 78.38476562 C-16.13878623 73.13878623 -16.13878623 73.13878623 -15 72 C-14.60056824 69.47804033 -14.24920152 66.97036344 -13.9375 64.4375 C-13.84662109 63.72658203 -13.75574219 63.01566406 -13.66210938 62.28320312 C-13.43760497 60.52261597 -13.21831603 58.76136522 -13 57 C-12.34 57 -11.68 57 -11 57 C-11.04060547 55.2675 -11.04060547 55.2675 -11.08203125 53.5 C-11.07920014 49.21181939 -10.51690638 45.19839305 -9.6875 41 C-9.55287354 40.29359375 -9.41824707 39.5871875 -9.27954102 38.859375 C-8.59683558 35.43196362 -7.83910742 32.20367411 -6.4375 29 C-5.38518125 26.31160476 -4.73280234 23.83079661 -4.3671875 20.96875 C-4.22518921 19.87046875 -4.22518921 19.87046875 -4.08032227 18.75 C-3.69374384 15.50231835 -3.33560283 12.2533733 -3 9 C-2.34 9 -1.68 9 -1 9 C-1.020625 7.88625 -1.04125 6.7725 -1.0625 5.625 C-1 2 -1 2 0 0 Z " fill="#4C75B4" transform="translate(1795,81)"/>
<path d="M0 0 C3.89184452 -0.10059445 7.78316254 -0.17225841 11.67602539 -0.21972656 C13.63389776 -0.24919327 15.59141099 -0.30007758 17.54882812 -0.3515625 C26.42995426 -0.44195564 33.68522236 0.94733993 42 4 C43.99847455 4.67122568 45.99805736 5.33918982 48 6 C48 6.66 48 7.32 48 8 C48.66 8 49.32 8 50 8 C50 8.66 50 9.32 50 10 C50.53625 10.061875 51.0725 10.12375 51.625 10.1875 C55.17026157 11.40035264 57.2592392 13.44610926 60 16 C60 16.66 60 17.32 60 18 C61.98 18.495 61.98 18.495 64 19 C64.495 20.98 64.495 20.98 65 23 C63.56542672 23.9834496 62.12722594 24.96160921 60.6875 25.9375 C59.48673828 26.75541016 59.48673828 26.75541016 58.26171875 27.58984375 C56 29 56 29 53 30 C53 30.66 53 31.32 53 32 C52.01 32.495 52.01 32.495 51 33 C50.67 33.99 50.34 34.98 50 36 C46.535 36.495 46.535 36.495 43 37 C42.95875 36.38125 42.9175 35.7625 42.875 35.125 C42.58625 34.42375 42.2975 33.7225 42 33 C39.1628485 31.80404463 39.1628485 31.80404463 36 31 C34.65278717 30.36184656 33.31252882 29.70674629 32 29 C32 28.34 32 27.68 32 27 C17.71028199 24.95625717 0.4253343 23.37129563 -12 32 C-18.28251421 35.70912738 -18.28251421 35.70912738 -21.3125 36.9375 C-23.7430128 38.46782287 -24.05055243 40.3415468 -25 43 C-25.70576172 43.89525391 -25.70576172 43.89525391 -26.42578125 44.80859375 C-28.24643501 47.3430522 -29.12456084 49.73738609 -30.125 52.6875 C-31.90945674 57.90945674 -31.90945674 57.90945674 -33 59 C-34.10075465 70.26810491 -34.52902258 81.39300963 -28 91 C-28 91.66 -28 92.32 -28 93 C-27.4225 93.268125 -26.845 93.53625 -26.25 93.8125 C-23.94449957 95.02929189 -21.97943808 96.30333879 -20 98 C-20 98.66 -20 99.32 -20 100 C-19.36191406 100.06058594 -18.72382812 100.12117188 -18.06640625 100.18359375 C-16.82697266 100.30927734 -16.82697266 100.30927734 -15.5625 100.4375 C-14.32693359 100.55931641 -14.32693359 100.55931641 -13.06640625 100.68359375 C-11 101 -11 101 -10 102 C-8.29436222 102.15740605 -6.58272756 102.25093392 -4.87109375 102.31640625 C-3.31938477 102.37924805 -3.31938477 102.37924805 -1.73632812 102.44335938 C-0.64771484 102.48267578 0.44089844 102.52199219 1.5625 102.5625 C2.65498047 102.60568359 3.74746094 102.64886719 4.87304688 102.69335938 C7.58189564 102.79982068 10.29083992 102.90183516 13 103 C13 102.34 13 101.68 13 101 C17.455 100.01 17.455 100.01 22 99 C22.144375 97.865625 22.28875 96.73125 22.4375 95.5625 C23 92 23 92 24 91 C24.27414593 89.28279337 24.49135345 87.55641846 24.68359375 85.828125 C24.86825195 84.24257812 24.86825195 84.24257812 25.05664062 82.625 C25.3087568 80.39086279 25.5587873 78.15648914 25.80664062 75.921875 C25.93103516 74.8596875 26.05542969 73.7975 26.18359375 72.703125 C26.29243896 71.73020508 26.40128418 70.75728516 26.51342773 69.75488281 C27 67 27 67 29 62 C37.25 62 45.5 62 54 62 C53.731875 65.795 53.46375 69.59 53.1875 73.5 C53.11039795 74.68013672 53.0332959 75.86027344 52.95385742 77.07617188 C52.47108771 83.32738006 51.35097509 88.21203508 49 94 C48.39068768 97.54162786 48.00687882 101.06065435 47.625 104.6328125 C46.73246426 109.44134881 45.43561177 112.94955237 41.4375 115.875 C39 117 39 117 37 117 C37 117.66 37 118.32 37 119 C34.31707555 120.01401869 31.62974283 121.01128551 28.9375 122 C28.18533203 122.28617187 27.43316406 122.57234375 26.65820312 122.8671875 C21.87663136 124.60594087 18.0863079 125.3242268 13 125 C13 125.66 13 126.32 13 127 C9.10808373 127.07544723 5.21646377 127.12919723 1.32397461 127.16479492 C-0.63377902 127.18689361 -2.59133062 127.2250566 -4.54882812 127.26367188 C-12.83549179 127.32692885 -21.18782536 127.06439158 -29 124 C-29.33 123.01 -29.66 122.02 -30 121 C-31.95490682 120.50298979 -33.91235628 120.01328768 -35.8828125 119.58203125 C-39.11405238 118.69373837 -41.35402667 117.02670297 -44 115 C-44.58910156 114.55527344 -45.17820312 114.11054688 -45.78515625 113.65234375 C-50.11539198 110.20470384 -52.49257979 106.92197301 -55 102 C-55.66 101.01 -56.32 100.02 -57 99 C-57 98.01 -57 97.02 -57 96 C-57.66 96 -58.32 96 -59 96 C-61.8486187 87.54066231 -62.46073291 79.76264484 -62.375 70.875 C-62.38660156 69.66457031 -62.39820313 68.45414062 -62.41015625 67.20703125 C-62.38983256 60.98120607 -62.0309954 55.6402844 -59.71020508 49.82885742 C-58.72043181 47.28008068 -58.34634819 44.70151591 -58 42 C-57.34 42 -56.68 42 -56 42 C-55.505 39.03 -55.505 39.03 -55 36 C-54.34 36 -53.68 36 -53 36 C-52.5359375 34.824375 -52.5359375 34.824375 -52.0625 33.625 C-51 31 -51 31 -50 29 C-49.34 29 -48.68 29 -48 29 C-47.6596875 28.195625 -47.6596875 28.195625 -47.3125 27.375 C-44.79385089 22.81744447 -41.45047772 18.76236548 -37 16 C-36.34 16 -35.68 16 -35 16 C-35 15.34 -35 14.68 -35 14 C-33.05675887 13.02837943 -31.11327281 12.05733126 -29.16796875 11.08984375 C-27.32966452 10.16572325 -25.50673968 9.21110776 -23.6875 8.25 C-21 7 -21 7 -18 7 C-18 6.34 -18 5.68 -18 5 C-16.125 4.6875 -14.25 4.375 -12.375 4.0625 C-11.33085938 3.88847656 -10.28671875 3.71445313 -9.2109375 3.53515625 C-6.140625 3.0234375 -3.0703125 2.51171875 0 2 C0 1.34 0 0.68 0 0 Z " fill="#4C75B4" transform="translate(1449,78)"/>
<path d="M0 0 C33.99 0 67.98 0 103 0 C102.67 2.97 102.34 5.94 102 9 C101.87431641 10.39605469 101.87431641 10.39605469 101.74609375 11.8203125 C101.13372831 16.39367467 100.34244747 19.16331117 96.65234375 22.05859375 C92.98898014 25.09612418 89.59316431 28.32496664 86.2578125 31.71484375 C85.50967033 32.47166443 85.50967033 32.47166443 84.74641418 33.24377441 C82.67258276 35.344182 80.60336923 37.44904822 78.53808594 39.55786133 C77.01146331 41.11449651 75.47882953 42.66500464 73.9453125 44.21484375 C73.04312988 45.13386475 72.14094727 46.05288574 71.21142578 46.99975586 C69 49 69 49 67 49 C66.62875 49.86625 66.62875 49.86625 66.25 50.75 C64.81700012 53.32939979 63.21575324 55.06121592 61 57 C60.34 57 59.68 57 59 57 C59 57.66 59 58.32 59 59 C57.34997172 60.35386936 55.6825613 61.68678142 54 63 C53.67 63.66 53.34 64.32 53 65 C52.34 65 51.68 65 51 65 C51 65.66 51 66.32 51 67 C49.34997172 68.35386936 47.6825613 69.68678142 46 71 C45.67 71.66 45.34 72.32 45 73 C44.34 73 43.68 73 43 73 C43 73.66 43 74.32 43 75 C41.609375 76.33203125 41.609375 76.33203125 39.75 77.8125 C37.56005022 79.6221591 35.84084183 81.20023125 34.0625 83.4375 C31.68508593 86.39125688 29.01503303 88.65161291 26.09765625 91.05859375 C23.49203693 93.47012597 21.27285656 96.27257213 19 99 C51.67 99.495 51.67 99.495 85 100 C85 107 85 107 82 123 C46.36 123 10.72 123 -26 123 C-26 106.60539941 -26 106.60539941 -20.4375 100.8125 C-18 99 -18 99 -16 99 C-15.7525 98.4225 -15.505 97.845 -15.25 97.25 C-13.81700012 94.67060021 -12.21575324 92.93878408 -10 91 C-9.34 91 -8.68 91 -8 91 C-7.505 89.515 -7.505 89.515 -7 88 C-6.34 88 -5.68 88 -5 88 C-5 87.34 -5 86.68 -5 86 C-4.34 86 -3.68 86 -3 86 C-2.505 84.515 -2.505 84.515 -2 83 C-1.34 83 -0.68 83 0 83 C0.495 81.515 0.495 81.515 1 80 C1.66 80 2.32 80 3 80 C3 79.34 3 78.68 3 78 C3.66 78 4.32 78 5 78 C5.495 76.515 5.495 76.515 6 75 C6.66 75 7.32 75 8 75 C8 74.34 8 73.68 8 73 C9.3347168 71.69311523 9.3347168 71.69311523 11.26171875 70.12109375 C14.92397301 67.0091055 18.345697 63.71595582 21.70703125 60.28515625 C22.20331024 59.78084076 22.69958923 59.27652527 23.21090698 58.75692749 C25.27479928 56.65718605 27.33502673 54.55404492 29.38647461 52.44213867 C30.90335003 50.8831344 32.42935887 49.33357163 33.95703125 47.78515625 C34.85397705 46.86613525 35.75092285 45.94711426 36.67504883 45.00024414 C39 43 39 43 42 43 C42.66 41.35 43.32 39.7 44 38 C44.66 38 45.32 38 46 38 C46.268125 37.360625 46.53625 36.72125 46.8125 36.0625 C48 34 48 34 51 33 C51.33 32.01 51.66 31.02 52 30 C52.99 29.67 53.98 29.34 55 29 C55.99 27.68 56.98 26.36 58 25 C27.805 24.505 27.805 24.505 -3 24 C-3.96482898 19.17585512 -3.66495621 16.07625205 -2.625 11.4375 C-2.48578125 10.77814453 -2.3465625 10.11878906 -2.203125 9.43945312 C-1.52899954 6.27551523 -0.78466164 3.13864658 0 0 Z " fill="#4C75B4" transform="translate(1670,80)"/>
<path d="M0 0 C1.13373047 -0.01224609 2.26746094 -0.02449219 3.43554688 -0.03710938 C10.30779899 -0.04899223 16.64049387 0.51547234 23.3125 2.1875 C23.3125 2.8475 23.3125 3.5075 23.3125 4.1875 C23.98796875 4.30867188 24.6634375 4.42984375 25.359375 4.5546875 C26.69742188 4.80605469 26.69742188 4.80605469 28.0625 5.0625 C28.94421875 5.22492188 29.8259375 5.38734375 30.734375 5.5546875 C33.18197744 6.15546264 35.11849857 6.96747117 37.3125 8.1875 C37.3125 8.8475 37.3125 9.5075 37.3125 10.1875 C38.3025 10.1875 39.2925 10.1875 40.3125 10.1875 C40.3125 12.1675 40.3125 14.1475 40.3125 16.1875 C39.6525 16.1875 38.9925 16.1875 38.3125 16.1875 C38.209375 17.3425 38.10625 18.4975 38 19.6875 C37.45214887 24.19921519 36.0350121 27.99355749 34.3125 32.1875 C31.14007666 31.81861357 28.7700804 31.46908794 26.02734375 29.78125 C15.4592796 23.57726414 3.15358137 23.60844512 -8.6875 24.1875 C-9.75226562 24.21972656 -10.81703125 24.25195312 -11.9140625 24.28515625 C-15.36370872 24.4154417 -15.36370872 24.4154417 -18.6875 25.1875 C-19.8630071 27.0905909 -19.8630071 27.0905909 -20.6875 29.1875 C-21.3475 29.8475 -22.0075 30.5075 -22.6875 31.1875 C-23.45840067 35.42404265 -24.02801993 40.22110819 -21.5078125 43.91796875 C-15.75785746 48.38862758 -7.93216166 49.7619706 -0.875 50.6875 C2.3125 51.1875 2.3125 51.1875 5.0625 52.625 C8.11397178 54.09205374 10.26355513 54.60606485 13.5625 55.125 C19.22473808 56.04819099 24.07593539 57.90879015 29.3125 60.1875 C29.98539063 60.42339844 30.65828125 60.65929687 31.3515625 60.90234375 C36.12944264 62.62034746 37.75114007 64.91856678 40.3125 69.1875 C41.67375 70.5178125 41.67375 70.5178125 43.0625 71.875 C45.3125 74.1875 45.3125 74.1875 45.3125 77.1875 C45.9725 77.1875 46.6325 77.1875 47.3125 77.1875 C47.3125 84.7775 47.3125 92.3675 47.3125 100.1875 C46.6525 100.1875 45.9925 100.1875 45.3125 100.1875 C45.209375 101.074375 45.10625 101.96125 45 102.875 C44.27794489 106.3539928 43.44798455 108.3656097 41.3125 111.1875 C39.65717377 112.20616229 37.98989862 113.20560813 36.3125 114.1875 C35.755625 115.0125 35.19875 115.8375 34.625 116.6875 C31.5874147 119.971376 28.71515715 120.53705047 24.45703125 121.609375 C22.34668023 121.98709264 22.34668023 121.98709264 21.3125 123.1875 C19.64632885 123.22813832 17.97861905 123.230221 16.3125 123.1875 C16.3125 123.8475 16.3125 124.5075 16.3125 125.1875 C0.46323836 128.85109308 -17.99769902 126.92593406 -33.6875 123.1875 C-35.39486328 123.01734375 -35.39486328 123.01734375 -37.13671875 122.84375 C-41.44024245 122.04837928 -44.43333965 120.38687443 -48.125 118.125 C-48.76115234 117.74794922 -49.39730469 117.37089844 -50.05273438 116.98242188 C-51.60382902 116.06109498 -53.14657343 115.12573407 -54.6875 114.1875 C-54.6875 112.5375 -54.6875 110.8875 -54.6875 109.1875 C-54.0275 109.1875 -53.3675 109.1875 -52.6875 109.1875 C-52.6875 107.8675 -52.6875 106.5475 -52.6875 105.1875 C-52.0275 105.1875 -51.3675 105.1875 -50.6875 105.1875 C-50.3575 102.8775 -50.0275 100.5675 -49.6875 98.1875 C-49.0275 98.1875 -48.3675 98.1875 -47.6875 98.1875 C-47.3575 96.8675 -47.0275 95.5475 -46.6875 94.1875 C-43.40053767 93.38796862 -41.97726808 93.09091064 -38.6875 94.1875 C-38.6875 94.8475 -38.6875 95.5075 -38.6875 96.1875 C-37.3675 96.1875 -36.0475 96.1875 -34.6875 96.1875 C-34.6875 96.8475 -34.6875 97.5075 -34.6875 98.1875 C-33.65625 98.31125 -32.625 98.435 -31.5625 98.5625 C-28.03153726 99.13201012 -25.06681846 100.06106051 -21.6875 101.1875 C-13.76379999 103.34850909 -5.87318601 103.67704729 2.3125 103.1875 C2.6425 102.8575 2.9725 102.5275 3.3125 102.1875 C4.88856197 101.84018264 6.47387078 101.53435523 8.0625 101.25 C11.68331118 100.56007466 14.95293824 99.75529549 18.3125 98.1875 C18.84818325 91.62538016 18.41231101 87.47409841 14.3125 82.1875 C11.21493083 80.67945465 11.21493083 80.67945465 8.3125 80.1875 C8.3125 79.5275 8.3125 78.8675 8.3125 78.1875 C4.0225 77.8575 -0.2675 77.5275 -4.6875 77.1875 C-4.6875 76.5275 -4.6875 75.8675 -4.6875 75.1875 C-6.0075 75.1875 -7.3275 75.1875 -8.6875 75.1875 C-8.6875 74.5275 -8.6875 73.8675 -8.6875 73.1875 C-9.59371094 73.15011719 -10.49992188 73.11273438 -11.43359375 73.07421875 C-18.73270269 72.68029859 -24.8863907 71.88449162 -31.6875 69.1875 C-31.6875 68.5275 -31.6875 67.8675 -31.6875 67.1875 C-32.574375 67.125625 -33.46125 67.06375 -34.375 67 C-38.45212365 65.9999508 -39.88093205 64.22162752 -42.6875 61.1875 C-43.6775 60.8575 -44.6675 60.5275 -45.6875 60.1875 C-47.0390625 58.078125 -47.0390625 58.078125 -48.3125 55.4375 C-48.95058594 54.14585937 -48.95058594 54.14585937 -49.6015625 52.828125 C-53.59658461 43.11361081 -51.88423815 32.15127659 -49.6875 22.1875 C-49.0275 22.1875 -48.3675 22.1875 -47.6875 22.1875 C-47.625625 21.65125 -47.56375 21.115 -47.5 20.5625 C-45.30274749 14.13976191 -40.46132302 11.15691249 -34.7734375 8.0703125 C-32.6875 7.1875 -32.6875 7.1875 -29.6875 7.1875 C-29.6875 6.5275 -29.6875 5.8675 -29.6875 5.1875 C-29.07261719 5.06632812 -28.45773437 4.94515625 -27.82421875 4.8203125 C-27.01597656 4.65273437 -26.20773437 4.48515625 -25.375 4.3125 C-24.17423828 4.06886719 -24.17423828 4.06886719 -22.94921875 3.8203125 C-20.43448882 3.24271001 -20.43448882 3.24271001 -17.6875 1.1875 C-11.8968544 -0.34397578 -5.94529695 0.00332325 0 0 Z " fill="#4C75B4" transform="translate(640.6875,77.8125)"/>
<path d="M0 0 C10.55331696 0.10795396 19.03434781 1.60224706 28.00585938 7.25097656 C29.68800729 8.07450002 31.37593964 8.88627464 33.06835938 9.68847656 C37.29102115 11.77724361 40.62851818 13.96251277 44.00585938 17.25097656 C44.00585938 17.91097656 44.00585938 18.57097656 44.00585938 19.25097656 C44.66585937 19.25097656 45.32585937 19.25097656 46.00585938 19.25097656 C46.75585938 21.00097656 46.75585938 21.00097656 47.00585938 23.25097656 C45.11148772 25.65537135 43.30708836 27.08450791 40.63085938 28.56347656 C37.55150993 30.54305835 35.73477788 32.83682872 33.53320312 35.72753906 C31.70139519 37.55466206 30.57117229 38.01822628 28.00585938 38.25097656 C24.88409434 36.16979988 23.09484848 34.38446022 21.00585938 31.25097656 C17.95156865 30.0381278 17.95156865 30.0381278 15.00585938 29.25097656 C15.00585938 28.59097656 15.00585938 27.93097656 15.00585938 27.25097656 C14.42835938 27.10660156 13.85085938 26.96222656 13.25585938 26.81347656 C11.87170541 26.46743807 10.49072761 26.10796944 9.1159668 25.72631836 C5.54416598 24.92170235 1.96583059 25.06049599 -1.68164062 25.06347656 C-2.48585449 25.06283203 -3.29006836 25.0621875 -4.11865234 25.06152344 C-9.67285285 25.11102411 -14.64439569 25.66586695 -19.99414062 27.25097656 C-19.99414062 27.91097656 -19.99414062 28.57097656 -19.99414062 29.25097656 C-21.64414062 29.58097656 -23.29414062 29.91097656 -24.99414062 30.25097656 C-24.99414062 30.91097656 -24.99414062 31.57097656 -24.99414062 32.25097656 C-25.75726562 32.68410156 -26.52039063 33.11722656 -27.30664062 33.56347656 C-30.37408288 35.48954496 -31.24587183 37.13449741 -32.99414062 40.25097656 C-33.65414062 40.82847656 -34.31414063 41.40597656 -34.99414062 42.00097656 C-40.51757346 48.2148385 -40.49848436 56.90635897 -40.68164062 64.81347656 C-40.73288086 66.32651367 -40.73288086 66.32651367 -40.78515625 67.87011719 C-40.86677343 70.33029224 -40.93619739 72.79014965 -40.99414062 75.25097656 C-40.33414063 75.25097656 -39.67414062 75.25097656 -38.99414062 75.25097656 C-38.66414062 77.56097656 -38.33414063 79.87097656 -37.99414062 82.25097656 C-37.33414063 82.25097656 -36.67414062 82.25097656 -35.99414062 82.25097656 C-35.51976562 83.24097656 -35.04539062 84.23097656 -34.55664062 85.25097656 C-29.66395083 93.62631014 -22.73353611 98.18799129 -13.45898438 100.63378906 C-3.19337939 102.46238612 9.30635861 102.40255119 18.81835938 97.56347656 C22.53279398 94.86869067 25.22723955 91.87437824 28.00585938 88.25097656 C31.43051278 89.3925277 32.11920037 90.36565285 34.31835938 93.12597656 C37.219104 96.56983933 39.74147279 98.5868257 44.00585938 100.25097656 C44.00585938 100.91097656 44.00585938 101.57097656 44.00585938 102.25097656 C44.66585937 102.25097656 45.32585937 102.25097656 46.00585938 102.25097656 C46.69335938 104.06347656 46.69335938 104.06347656 47.00585938 106.25097656 C45.88085938 107.75097656 45.88085938 107.75097656 44.00585938 109.25097656 C42.73742187 110.33378906 42.73742187 110.33378906 41.44335938 111.43847656 C39.00585938 113.25097656 39.00585938 113.25097656 37.00585938 113.25097656 C36.75835938 113.86972656 36.51085937 114.48847656 36.25585938 115.12597656 C34.76631843 117.65819616 33.63004889 118.05816314 31.00585938 119.25097656 C30.55726563 119.73050781 30.10867188 120.21003906 29.64648438 120.70410156 C25.92994749 124.20826491 20.39436886 125.17789712 15.44335938 125.43847656 C14.23679687 125.34566406 14.23679687 125.34566406 13.00585938 125.25097656 C13.00585938 125.91097656 13.00585938 126.57097656 13.00585938 127.25097656 C-27.25705605 128.53701563 -27.25705605 128.53701563 -38.05664062 119.18847656 C-38.78173828 118.43050781 -38.78173828 118.43050781 -39.52148438 117.65722656 C-41.25382744 116.00299976 -42.94579702 115.18109022 -45.11914062 114.18847656 C-48.84541845 112.44380313 -51.2489339 110.36715717 -53.99414062 107.25097656 C-54.43757812 106.75210938 -54.88101563 106.25324219 -55.33789062 105.73925781 C-59.06589456 101.43688118 -60.99414062 98.97816766 -60.99414062 93.25097656 C-61.65414062 93.25097656 -62.31414063 93.25097656 -62.99414062 93.25097656 C-62.99414062 92.26097656 -62.99414062 91.27097656 -62.99414062 90.25097656 C-63.65414062 90.25097656 -64.31414063 90.25097656 -64.99414062 90.25097656 C-69.66758765 81.1590936 -70.65047488 73.63615255 -70.30664062 63.50097656 C-70.28408203 62.21964844 -70.26152344 60.93832031 -70.23828125 59.61816406 C-70.18000385 56.49449533 -70.09824263 53.3733962 -69.99414062 50.25097656 C-69.33414063 50.25097656 -68.67414062 50.25097656 -67.99414062 50.25097656 C-67.89101563 49.26097656 -67.78789063 48.27097656 -67.68164062 47.25097656 C-67.06177828 42.97220456 -65.67830453 39.21641702 -63.99414062 35.25097656 C-63.75179687 34.62449219 -63.50945313 33.99800781 -63.25976562 33.35253906 C-60.35742927 26.64430881 -55.25231949 21.23433771 -49.99414062 16.25097656 C-49.33414063 16.25097656 -48.67414062 16.25097656 -47.99414062 16.25097656 C-47.99414062 15.59097656 -47.99414062 14.93097656 -47.99414062 14.25097656 C-45.01145002 12.72649026 -42.17593862 11.3115759 -38.99414062 10.25097656 C-38.99414062 9.59097656 -38.99414062 8.93097656 -38.99414062 8.25097656 C-32.06772517 4.06959211 -25.83141759 2.47458011 -17.80273438 1.61035156 C-5.23003252 0.00160529 -5.23003252 0.00160529 0 0 Z " fill="#4C75B4" transform="translate(769.994140625,77.7490234375)"/>
<path d="M0 0 C0.98935547 -0.01224609 1.97871094 -0.02449219 2.99804688 -0.03710938 C4.43567383 -0.04000977 4.43567383 -0.04000977 5.90234375 -0.04296875 C6.77238037 -0.04707764 7.64241699 -0.05118652 8.53881836 -0.05541992 C11.34782627 0.21496441 13.5023192 1.02868737 16.0625 2.1875 C16.0625 2.8475 16.0625 3.5075 16.0625 4.1875 C16.866875 4.22875 17.67125 4.27 18.5 4.3125 C23.34814412 5.50327224 27.34400215 7.84476614 31.0625 11.1875 C31.82421875 13.38671875 31.82421875 13.38671875 32.0625 15.1875 C30.40034732 16.52645632 28.73286393 17.85880142 27.0625 19.1875 C26.1034375 20.0846875 26.1034375 20.0846875 25.125 21 C23.0625 22.1875 23.0625 22.1875 20.1875 22.125 C17.0625 21.1875 17.0625 21.1875 14.4375 19.1875 C8.55346373 15.70066369 2.06920132 16.13653896 -4.625 16.25 C-11.88594586 18.30498468 -17.10630094 22.37955228 -20.95605469 28.83569336 C-22.77366084 33.19116601 -22.45809301 37.54542511 -22.25 42.1875 C-22.22744141 43.15300781 -22.20488281 44.11851562 -22.18164062 45.11328125 C-22.12323128 47.47301874 -22.04140208 49.82940223 -21.9375 52.1875 C-21.31875 52.31125 -20.7 52.435 -20.0625 52.5625 C-17.9375 53.1875 -17.9375 53.1875 -15.9375 55.1875 C-15.9375 56.1775 -15.9375 57.1675 -15.9375 58.1875 C-15.2775 58.1875 -14.6175 58.1875 -13.9375 58.1875 C-13.9375 58.8475 -13.9375 59.5075 -13.9375 60.1875 C-8.67302299 61.26959479 -3.5968945 61.3370458 1.75 61.3125 C2.60400391 61.31636719 3.45800781 61.32023437 4.33789062 61.32421875 C5.15837891 61.32292969 5.97886719 61.32164062 6.82421875 61.3203125 C7.9373645 61.31862061 7.9373645 61.31862061 9.07299805 61.31689453 C11.2732026 61.25837139 11.2732026 61.25837139 14.0625 60.1875 C14.10008423 59.24112671 14.10008423 59.24112671 14.13842773 58.27563477 C14.25404137 55.43353175 14.37692316 52.59178917 14.5 49.75 C14.53931641 48.75677734 14.57863281 47.76355469 14.61914062 46.74023438 C14.68198242 45.32387695 14.68198242 45.32387695 14.74609375 43.87890625 C14.78275146 43.00435791 14.81940918 42.12980957 14.85717773 41.22875977 C15.0625 39.1875 15.0625 39.1875 16.0625 38.1875 C18.75904854 38.11430379 21.42941458 38.09507463 24.125 38.125 C25.26291992 38.13176758 25.26291992 38.13176758 26.42382812 38.13867188 C28.30341871 38.1504932 30.18296899 38.16842922 32.0625 38.1875 C32.18613227 42.54734461 32.27684908 46.90626055 32.3371582 51.26733398 C32.3622981 52.75058768 32.39641592 54.23371753 32.43969727 55.71655273 C32.50038258 57.84910595 32.52871116 59.98002205 32.55078125 62.11328125 C32.57696533 63.39630127 32.60314941 64.67932129 32.63012695 66.0012207 C32.0625 69.1875 32.0625 69.1875 29.72924805 71.04516602 C26.68620507 72.34869051 23.65690106 73.63402483 20.5625 74.8125 C19.4590625 75.23789063 18.355625 75.66328125 17.21875 76.1015625 C5.85743201 80.01053082 -7.95231836 79.49489458 -18.77734375 74.27734375 C-19.49019531 73.91769531 -20.20304687 73.55804688 -20.9375 73.1875 C-21.55753906 72.90003906 -22.17757813 72.61257812 -22.81640625 72.31640625 C-29.14677191 69.12998058 -33.68464079 64.4578032 -36.23046875 57.8125 C-36.93192055 55.50302692 -37.59470204 53.18131313 -38.2109375 50.84765625 C-38.67461656 48.28511168 -38.67461656 48.28511168 -39.9375 47.1875 C-40.03620264 45.83099048 -40.06829113 44.46946919 -40.0703125 43.109375 C-40.07160156 42.27792969 -40.07289063 41.44648438 -40.07421875 40.58984375 C-40.07035156 39.71457031 -40.06648438 38.83929688 -40.0625 37.9375 C-40.06636719 37.07769531 -40.07023437 36.21789062 -40.07421875 35.33203125 C-40.06778713 31.15791156 -39.99672623 27.25627376 -38.9375 23.1875 C-38.2775 23.1875 -37.6175 23.1875 -36.9375 23.1875 C-36.6075 21.5375 -36.2775 19.8875 -35.9375 18.1875 C-35.2775 18.1875 -34.6175 18.1875 -33.9375 18.1875 C-33.73125 17.465625 -33.525 16.74375 -33.3125 16 C-31.46221012 12.21531616 -29.33509562 10.66491347 -25.9375 8.1875 C-25.2775 8.1875 -24.6175 8.1875 -23.9375 8.1875 C-23.9375 7.5275 -23.9375 6.8675 -23.9375 6.1875 C-20.9675 5.1975 -17.9975 4.2075 -14.9375 3.1875 C-14.9375 2.5275 -14.9375 1.8675 -14.9375 1.1875 C-10.00903169 -0.24357588 -5.09335298 0.00330523 0 0 Z " fill="#3E56A4" transform="translate(298.9375,109.8125)"/>
<path d="M0 0 C0.72453369 0.03005127 1.44906738 0.06010254 2.19555664 0.09106445 C8.02860748 0.47447323 14.16989392 1.54489392 18.4375 5.8125 C18.1953125 8.1953125 18.1953125 8.1953125 17.5625 10.9375 C17.35882813 11.84757812 17.15515625 12.75765625 16.9453125 13.6953125 C16.77773437 14.39398438 16.61015625 15.09265625 16.4375 15.8125 C15.7775 15.8125 15.1175 15.8125 14.4375 15.8125 C14.4375 16.8025 14.4375 17.7925 14.4375 18.8125 C13.60798828 18.5959375 13.60798828 18.5959375 12.76171875 18.375 C9.39284164 17.55967512 5.98822846 16.95085028 2.58203125 16.3125 C0.4375 15.8125 0.4375 15.8125 -0.5625 14.8125 C-3.01534945 14.65864213 -5.42070214 14.58086706 -7.875 14.5625 C-8.89110352 14.5315625 -8.89110352 14.5315625 -9.92773438 14.5 C-12.9984536 14.47598656 -15.25933328 14.66211778 -18.02734375 16.03515625 C-20.0068084 18.32690286 -19.98560655 19.51391203 -19.8125 22.5 C-19.75835937 23.71236328 -19.75835937 23.71236328 -19.703125 24.94921875 C-19.65671875 25.56410156 -19.6103125 26.17898437 -19.5625 26.8125 C-18.82644531 26.93367188 -18.09039062 27.05484375 -17.33203125 27.1796875 C-16.35621094 27.34726563 -15.38039062 27.51484375 -14.375 27.6875 C-13.41207031 27.84992188 -12.44914062 28.01234375 -11.45703125 28.1796875 C-8.65217396 28.79289517 -6.19025253 29.66916343 -3.5625 30.8125 C-3.5625 31.4725 -3.5625 32.1325 -3.5625 32.8125 C-2.5725 32.750625 -1.5825 32.68875 -0.5625 32.625 C3.90638211 32.59758355 7.35054608 34.0916773 11.4375 35.8125 C11.4375 36.4725 11.4375 37.1325 11.4375 37.8125 C11.994375 37.874375 12.55125 37.93625 13.125 38 C16.42818042 39.1605769 18.15644733 41.21463446 20.4375 43.8125 C20.4375 44.4725 20.4375 45.1325 20.4375 45.8125 C21.0975 45.8125 21.7575 45.8125 22.4375 45.8125 C22.51882187 48.37564499 22.57814175 50.93618418 22.625 53.5 C22.65013672 54.22123047 22.67527344 54.94246094 22.70117188 55.68554688 C22.76448516 60.30741676 22.35048553 63.18730875 19.4375 66.8125 C9.0151141 76.18308549 -1.97415398 77.61703377 -15.48046875 77.23828125 C-23.98772802 76.73256571 -32.92961744 74.3561592 -39.5625 68.8125 C-39.2325 66.8325 -38.9025 64.8525 -38.5625 62.8125 C-37.9025 62.8125 -37.2425 62.8125 -36.5625 62.8125 C-36.2325 60.1725 -35.9025 57.5325 -35.5625 54.8125 C-33.9125 55.1425 -32.2625 55.4725 -30.5625 55.8125 C-30.5625 56.4725 -30.5625 57.1325 -30.5625 57.8125 C-29.98749756 57.94551514 -29.41249512 58.07853027 -28.82006836 58.21557617 C-26.61820563 58.79777087 -24.56903782 59.55519868 -22.44140625 60.36328125 C-17.39121124 62.06600123 -12.78553742 62.15991929 -7.5 62 C-6.2015918 61.97969727 -6.2015918 61.97969727 -4.87695312 61.95898438 C-2.77185826 61.9240933 -0.66709026 61.87030665 1.4375 61.8125 C3.34351167 58.24641365 4.11944359 55.90416154 3.4375 51.8125 C-0.01437186 48.84228468 -3.04250837 47.34426372 -7.5625 46.8125 C-7.5625 46.1525 -7.5625 45.4925 -7.5625 44.8125 C-8.449375 44.895 -9.33625 44.9775 -10.25 45.0625 C-18.71652192 45.02808324 -27.59769464 41.83011974 -34.0390625 36.3671875 C-37.69718181 32.63402984 -38.73710248 29.16111858 -39 24.0625 C-38.76725361 17.04837026 -36.55161434 11.14121922 -32 5.8125 C-23.46463714 -1.19087465 -10.64777625 -0.51512487 0 0 Z " fill="#6187BC" transform="translate(228.5625,111.1875)"/>
<path d="M0 0 C7.858125 -0.1546875 7.858125 -0.1546875 15.875 -0.3125 C17.50679199 -0.35802002 19.13858398 -0.40354004 20.81982422 -0.45043945 C29.0368203 -0.52847121 36.25595938 -0.294583 43 5 C48.59540912 11.76197966 49.46639189 18.15818702 49.41796875 26.796875 C48.78301885 31.66284616 46.60537697 33.89437826 43 37 C42.34 37.763125 41.68 38.52625 41 39.3125 C36.3937267 43.19904309 30.97196544 43.28199984 25.1953125 43.1953125 C24.55263428 43.19329834 23.90995605 43.19128418 23.24780273 43.18920898 C20.87346135 43.17883578 18.49922263 43.15091395 16.125 43.125 C10.80375 43.08375 5.4825 43.0425 0 43 C0 28.81 0 14.62 0 0 Z " fill="#FEFEFE" transform="translate(865,103)"/>
<path d="M0 0 C0.66 0.33 1.32 0.66 2 1 C2.35557331 3.25946584 2.44330506 5.4899777 2.55859375 7.7734375 C3.09163898 10.4622497 4.0897973 11.11964421 6 13 C6.44140625 15.015625 6.44140625 15.015625 6.5625 17.25 C6.81821743 21.62044341 7.71221281 24.49274484 9 29 C9.495 36.92 9.495 36.92 10 45 C-2.21 45 -14.42 45 -27 45 C-25 40 -25 40 -23.0625 37.125 C-20.88971571 34.05093447 -20.88971571 34.05093447 -19.5625 30.5 C-18.1460608 27.32717618 -16.61749281 25.18054913 -14.328125 22.6015625 C-11.86955973 19.63682203 -9.97059877 16.30040843 -8 13 C-5.38121495 8.63535825 -2.70630816 4.31083869 0 0 Z " fill="#F7F9FB" transform="translate(1589,110)"/>
<path d="M0 0 C31.02 0 62.04 0 94 0 C94 7.92 94 15.84 94 24 C72.55 24 51.1 24 29 24 C29 32.25 29 40.5 29 49 C47.81 49 66.62 49 86 49 C86 56.59 86 64.18 86 72 C67.19 72 48.38 72 29 72 C29 81.24 29 90.48 29 100 C51.11 100 73.22 100 96 100 C96 107.59 96 115.18 96 123 C95.67 123 95.34 123 95 123 C95 115.74 95 108.48 95 101 C72.89 101 50.78 101 28 101 C28 91.1 28 81.2 28 71 C46.81 71 65.62 71 85 71 C85 64.07 85 57.14 85 50 C66.19 50 47.38 50 28 50 C28 40.76 28 31.52 28 22 C49.12 22 70.24 22 92 22 C92 15.07 92 8.14 92 1 C61.97 1 31.94 1 1 1 C1 41.26 1 81.52 1 123 C0.67 123 0.34 123 0 123 C0 82.41 0 41.82 0 0 Z " fill="#99B0D4" transform="translate(965,80)"/>
<path d="M0 0 C7.92 0 15.84 0 24 0 C24.33 0.66 24.66 1.32 25 2 C17.41 2 9.82 2 2 2 C2 41.6 2 81.2 2 122 C10.58 122 19.16 122 28 122 C28 97.91 28 73.82 28 49 C28.66 49.33 29.32 49.66 30 50 C29.67 74.09 29.34 98.18 29 123 C19.43 123 9.86 123 0 123 C0 82.41 0 41.82 0 0 Z " fill="#8AA5CE" transform="translate(1200,80)"/>
<path d="M0 0 C9.24 0 18.48 0 28 0 C28 40.59 28 81.18 28 123 C20.08 123 12.16 123 4 123 C4 122.34 4 121.68 4 121 C3.071875 120.62875 3.071875 120.62875 2.125 120.25 C-0.35068687 118.79371361 -0.95125002 117.62187494 -2 115 C-0.68 115.33 0.64 115.66 2 116 C2.33 117.32 2.66 118.64 3 120 C3.66 120 4.32 120 5 120 C5 120.66 5 121.32 5 122 C12.26 122 19.52 122 27 122 C27 82.4 27 42.8 27 2 C18.42 2 9.84 2 1 2 C1 25.76 1 49.52 1 74 C0.01 73.67 -0.98 73.34 -2 73 C-1.34 73 -0.68 73 0 73 C0 48.91 0 24.82 0 0 Z " fill="#6B8EC1" transform="translate(1285,80)"/>
<path d="M0 0 C0.86445236 0.00202423 1.72890472 0.00404846 2.61955261 0.00613403 C3.52517441 0.00438171 4.4307962 0.00262939 5.36386108 0.00082397 C8.37293892 -0.00359597 11.3819585 -0.00065605 14.39103699 0.00271606 C16.47229524 0.00204307 18.55355342 0.00107308 20.6348114 -0.00018311 C25.00294236 -0.00166027 29.37105292 0.00049508 33.73918152 0.00515747 C39.35193252 0.01085477 44.96463571 0.00757586 50.57738495 0.00158501 C54.87690087 -0.0020201 59.17640537 -0.00088225 63.47592163 0.0017128 C65.5460816 0.00238221 67.61624259 0.00155316 69.68640137 -0.00076675 C72.57430285 -0.00329245 75.46212576 0.00054614 78.35002136 0.00613403 C79.21447372 0.0041098 80.07892609 0.00208557 80.96957397 0 C86.87052462 0.02126619 86.87052462 0.02126619 87.98478699 1.13552856 C87.89476301 3.15961611 87.73837661 5.18097143 87.54728699 7.19802856 C87.44545105 8.30275513 87.34361511 9.40748169 87.23869324 10.54568481 C87.11300964 11.82765747 87.11300964 11.82765747 86.98478699 13.13552856 C86.32478699 13.13552856 85.66478699 13.13552856 84.98478699 13.13552856 C84.65478699 15.77552856 84.32478699 18.41552856 83.98478699 21.13552856 C82.60958048 17.31551049 83.24427175 14.0602593 83.98478699 10.13552856 C84.31478699 9.80552856 84.64478699 9.47552856 84.98478699 9.13552856 C85.31478699 6.82552856 85.64478699 4.51552856 85.98478699 2.13552856 C55.95478699 2.13552856 25.92478699 2.13552856 -5.01521301 2.13552856 C-5.34521301 5.10552856 -5.67521301 8.07552856 -6.01521301 11.13552856 C-6.67521301 11.13552856 -7.33521301 11.13552856 -8.01521301 11.13552856 C-7.98040833 11.87416138 -7.94560364 12.61279419 -7.90974426 13.37380981 C-7.7129108 20.75037831 -8.49445934 27.17406894 -11.01521301 34.13552856 C-11.51021301 34.63052856 -11.51021301 34.63052856 -12.01521301 35.13552856 C-12.40837781 36.81437094 -12.75606753 38.50402902 -13.07771301 40.19802856 C-13.25431458 41.11713013 -13.43091614 42.03623169 -13.61286926 42.98318481 C-13.7456427 43.69345825 -13.87841614 44.40373169 -14.01521301 45.13552856 C-15.32181658 40.8382546 -14.67488922 37.53336991 -14.01521301 33.13552856 C-13.35521301 33.13552856 -12.69521301 33.13552856 -12.01521301 33.13552856 C-12.01521301 30.82552856 -12.01521301 28.51552856 -12.01521301 26.13552856 C-11.35521301 26.13552856 -10.69521301 26.13552856 -10.01521301 26.13552856 C-9.68521301 20.52552856 -9.35521301 14.91552856 -9.01521301 9.13552856 C-8.35521301 9.13552856 -7.69521301 9.13552856 -7.01521301 9.13552856 C-7.03583801 7.83615356 -7.05646301 6.53677856 -7.07771301 5.19802856 C-7.09920756 3.84387223 -7.086695 2.48796774 -7.01521301 1.13552856 C-5.15065955 -0.7290249 -2.48114953 0.00894171 0 0 Z " fill="#C2D0E6" transform="translate(1800.0152130126953,78.86447143554688)"/>
<path d="M0 0 C-11.35677735 7.01951565 -23.10237084 13.39743099 -34.875 19.6875 C-38.95546845 21.86817588 -42.9601847 24.13666772 -46.9375 26.5 C-51.14993725 28.98765979 -55.41549886 31.23084439 -59.8125 33.375 C-66.87400659 36.84312352 -73.55390492 40.81842216 -80.24560547 44.94677734 C-82.09948855 46.05972636 -83.98502025 47.10137479 -85.87890625 48.14453125 C-89.04970738 49.64916851 -89.04970738 49.64916851 -90 52 C-88.35 52.66 -86.7 53.32 -85 54 C-85 54.66 -85 55.32 -85 56 C-83.88625 56.433125 -83.88625 56.433125 -82.75 56.875 C-80.43260203 57.82302644 -78.22082885 58.84845911 -76 60 C-78 61 -78 61 -80.56640625 60.29296875 C-81.55511719 59.92816406 -82.54382813 59.56335938 -83.5625 59.1875 C-84.55378906 58.83042969 -85.54507813 58.47335938 -86.56640625 58.10546875 C-89 57 -89 57 -90 55 C-92.02463255 54.34786708 -92.02463255 54.34786708 -94 54 C-94.33 52.68 -94.66 51.36 -95 50 C-89.25 47 -89.25 47 -87 47 C-87 46.34 -87 45.68 -87 45 C-86.01 45 -85.02 45 -84 45 C-84 44.34 -84 43.68 -84 43 C-82.25197854 42.18325204 -80.50149811 41.37176549 -78.75 40.5625 C-77.77546875 40.11003906 -76.8009375 39.65757812 -75.796875 39.19140625 C-73.50748305 38.21617644 -71.42621254 37.5025726 -69 37 C-69 36.34 -69 35.68 -69 35 C-68.443125 34.76925781 -67.88625 34.53851563 -67.3125 34.30078125 C-62.46349692 32.22848771 -58.08299203 29.92912213 -53.7265625 26.953125 C-52 26 -52 26 -49 26 C-49 25.34 -49 24.68 -49 24 C-48.01 24 -47.02 24 -46 24 C-46 23.34 -46 22.68 -46 22 C-44.89140625 21.51789063 -43.7828125 21.03578125 -42.640625 20.5390625 C-41.17705887 19.90109778 -39.71351856 19.26307384 -38.25 18.625 C-37.52039062 18.30789062 -36.79078125 17.99078125 -36.0390625 17.6640625 C-34.97558594 17.2 -34.97558594 17.2 -33.890625 16.7265625 C-33.24125977 16.44377441 -32.59189453 16.16098633 -31.92285156 15.86962891 C-29.92066492 14.96411991 -27.95913944 13.99481594 -26 13 C-26 12.34 -26 11.68 -26 11 C-24.33710938 10.18595703 -24.33710938 10.18595703 -22.640625 9.35546875 C-21.17697731 8.63302726 -19.7134415 7.91035908 -18.25 7.1875 C-17.52039063 6.83107422 -16.79078125 6.47464844 -16.0390625 6.10742188 C-12.42300206 4.31582829 -9.17272868 2.52132303 -6 0 C-2.48275862 -1.24137931 -2.48275862 -1.24137931 0 0 Z " fill="#9DBFDA" transform="translate(101,97)"/>
<path d="M0 0 C7.858125 -0.1546875 7.858125 -0.1546875 15.875 -0.3125 C17.50679199 -0.35802002 19.13858398 -0.40354004 20.81982422 -0.45043945 C29.0368203 -0.52847121 36.25595938 -0.294583 43 5 C47.86131715 10.87483899 49.14687026 16.00824634 49.25 23.5625 C49.27578125 24.69816406 49.3015625 25.83382812 49.328125 27.00390625 C48.95987662 30.36636466 48.41727224 30.8551695 46 33 C46.04640625 31.7934375 46.0928125 30.586875 46.140625 29.34375 C46.17817287 27.72919164 46.21456977 26.11460622 46.25 24.5 C46.28351562 23.70851563 46.31703125 22.91703125 46.3515625 22.1015625 C46.44530489 16.38327661 45.52187166 11.64933552 42 7 C38.91398245 5.41150153 38.91398245 5.41150153 36 5 C36 4.34 36 3.68 36 3 C34.68 3 33.36 3 32 3 C32 2.34 32 1.68 32 1 C21.77 1 11.54 1 1 1 C1 14.53 1 28.06 1 42 C11.56 42 22.12 42 33 42 C33 42.33 33 42.66 33 43 C22.11 43 11.22 43 0 43 C0 28.81 0 14.62 0 0 Z " fill="#BDCDE4" transform="translate(865,103)"/>
<path d="M0 0 C0.33 0.66 0.66 1.32 1 2 C-0.98 4.31 -2.96 6.62 -5 9 C15.79 9.33 36.58 9.66 58 10 C58 11.65 58 13.3 58 15 C57.505 13.515 57.505 13.515 57 12 C34.89 12 12.78 12 -10 12 C-7.75960508 8.26600846 -6.30264704 6.0648113 -3.3125 3.1875 C-2.37857422 2.28064453 -2.37857422 2.28064453 -1.42578125 1.35546875 C-0.95527344 0.90816406 -0.48476562 0.46085938 0 0 Z " fill="#D1DCEC" transform="translate(1698,168)"/>
<path d="M0 0 C0.66209473 -0.00095673 1.32418945 -0.00191345 2.00634766 -0.00289917 C3.40852961 -0.00358076 4.8107147 -0.00172792 6.21289062 0.00244141 C8.36595713 0.00779004 10.51881502 0.0024958 12.671875 -0.00390625 C14.03125046 -0.00324546 15.3906258 -0.00196429 16.75 0 C18.61785156 0.00169189 18.61785156 0.00169189 20.5234375 0.00341797 C23.375 0.1328125 23.375 0.1328125 24.375 1.1328125 C25.72247084 1.36356332 27.07877565 1.54434313 28.4375 1.6953125 C29.736875 1.8396875 31.03625 1.9840625 32.375 2.1328125 C32.045 2.7928125 31.715 3.4528125 31.375 4.1328125 C30.405625 4.060625 29.43625 3.9884375 28.4375 3.9140625 C11.00798627 2.67756852 -5.37787885 3.18753489 -22.625 6.1328125 C-22.625 6.7928125 -22.625 7.4528125 -22.625 8.1328125 C-23.58599609 8.27976562 -23.58599609 8.27976562 -24.56640625 8.4296875 C-28.99187217 9.19474569 -32.76174462 9.95988797 -36.625 12.3203125 C-38.11 13.2175 -38.11 13.2175 -39.625 14.1328125 C-40.285 13.8028125 -40.945 13.4728125 -41.625 13.1328125 C-39.13483642 10.15305743 -36.73675481 9.31148117 -33.0625 8.1953125 C-29.08473965 6.94926709 -25.26253058 5.60002792 -21.4375 3.9453125 C-16.80110126 2.02473309 -12.6105892 1.52849418 -7.625 1.1328125 C-5.74180732 -0.75038018 -2.50569863 0.00226965 0 0 Z " fill="#8DA6CD" transform="translate(252.625,41.8671875)"/>
<path d="M0 0 C0.33 0 0.66 0 1 0 C1.23182543 6.60702487 0.09661788 11.71014635 -2 18 C32.98 18 67.96 18 104 18 C104 16.02 104 14.04 104 12 C104.33 12 104.66 12 105 12 C105 14.31 105 16.62 105 19 C69.36 19 33.72 19 -3 19 C-3 10 -3 10 -1.5 5 C-1.2215625 4.05125 -0.943125 3.1025 -0.65625 2.125 C-0.4396875 1.42375 -0.223125 0.7225 0 0 Z " fill="#6C8DC2" transform="translate(1647,184)"/>
<path d="M0 0 C30.69 0 61.38 0 93 0 C92.67 3.96 92.34 7.92 92 12 C91.34 12 90.68 12 90 12 C89.67 14.64 89.34 17.28 89 20 C87.62479349 16.17998192 88.25948477 12.92473073 89 9 C89.33 8.67 89.66 8.34 90 8 C90.33 5.69 90.66 3.38 91 1 C60.97 1 30.94 1 0 1 C0 0.67 0 0.34 0 0 Z " fill="#82A0CB" transform="translate(1795,80)"/>
<path d="M0 0 C0.495 0.99 0.495 0.99 1 2 C0.01 2 -0.98 2 -2 2 C-2.33 2.99 -2.66 3.98 -3 5 C-6.4934597 6.74672985 -9.06845568 8 -13 8 C-13 8.66 -13 9.32 -13 10 C-13.63164062 10.3403125 -14.26328125 10.680625 -14.9140625 11.03125 C-21.06795108 14.36534526 -27.16607352 17.78387765 -33.22705078 21.28320312 C-41.42049267 26 -41.42049267 26 -45 26 C-45 26.66 -45 27.32 -45 28 C-46.28913487 28.67154933 -47.58140204 29.33708859 -48.875 30 C-49.59429687 30.37125 -50.31359375 30.7425 -51.0546875 31.125 C-53 32 -53 32 -55 32 C-55 31.34 -55 30.68 -55 30 C-54.01 30 -53.02 30 -52 30 C-52 29.34 -52 28.68 -52 28 C-50.41925436 27.18247697 -48.83528777 26.37118003 -47.25 25.5625 C-46.36828125 25.11003906 -45.4865625 24.65757813 -44.578125 24.19140625 C-42.35801434 23.16544602 -40.38555381 22.48491397 -38 22 C-38 21.34 -38 20.68 -38 20 C-32.375 17 -32.375 17 -29 17 C-29 16.34 -29 15.68 -29 15 C-27.5437455 14.32880451 -26.08492133 13.66318193 -24.625 13 C-23.81289062 12.62875 -23.00078125 12.2575 -22.1640625 11.875 C-20 11 -20 11 -18 11 C-18 10.34 -18 9.68 -18 9 C-17.28714844 8.68546875 -16.57429688 8.3709375 -15.83984375 8.046875 C-10.38146956 5.60787065 -5.12693294 3.07615977 0 0 Z " fill="#97B7D6" transform="translate(200,40)"/>
<path d="M0 0 C0.98935547 -0.01224609 1.97871094 -0.02449219 2.99804688 -0.03710938 C4.43567383 -0.04000977 4.43567383 -0.04000977 5.90234375 -0.04296875 C6.77238037 -0.04707764 7.64241699 -0.05118652 8.53881836 -0.05541992 C11.34782627 0.21496441 13.5023192 1.02868737 16.0625 2.1875 C13.09013378 3.67368311 10.66088019 2.9127192 7.375 2.5625 C-2.88639868 1.6660186 -12.22971552 3.80381256 -21.9375 7.1875 C-21.9375 7.8475 -21.9375 8.5075 -21.9375 9.1875 C-23.546875 10.84375 -23.546875 10.84375 -25.6875 12.6875 C-26.38359375 13.2959375 -27.0796875 13.904375 -27.796875 14.53125 C-29.78210792 16.06726963 -31.65622045 17.1598966 -33.9375 18.1875 C-32.5041944 13.17093041 -30.03186048 11.17297118 -25.9375 8.1875 C-25.2775 8.1875 -24.6175 8.1875 -23.9375 8.1875 C-23.9375 7.5275 -23.9375 6.8675 -23.9375 6.1875 C-20.9675 5.1975 -17.9975 4.2075 -14.9375 3.1875 C-14.9375 2.5275 -14.9375 1.8675 -14.9375 1.1875 C-10.00903169 -0.24357588 -5.09335298 0.00330523 0 0 Z " fill="#859AC8" transform="translate(298.9375,109.8125)"/>
<path d="M0 0 C21.78 0 43.56 0 66 0 C66 2.97 66 5.94 66 9 C65.67 9.33 65.34 9.66 65 10 C64.60333773 12.18019479 64.25684763 14.3696463 63.9375 16.5625 C63.76089844 17.76003906 63.58429688 18.95757812 63.40234375 20.19140625 C63.26957031 21.11824219 63.13679688 22.04507813 63 23 C62.67 23 62.34 23 62 23 C62.33 17.72 62.66 12.44 63 7 C63.66 7 64.32 7 65 7 C65 5.02 65 3.04 65 1 C43.55 1 22.1 1 0 1 C0 0.67 0 0.34 0 0 Z " fill="#93ACD2" transform="translate(1803,180)"/>
<path d="M0 0 C-5.66781038 3.37926151 -11.3155924 6.73174521 -17.25 9.625 C-20.94782106 11.42981887 -24.3852864 13.44395633 -27.84765625 15.66015625 C-30.48620901 17.30266731 -33.16677113 18.85008049 -35.875 20.375 C-36.80054687 20.89835937 -37.72609375 21.42171875 -38.6796875 21.9609375 C-39.44539063 22.30382812 -40.21109375 22.64671875 -41 23 C-41.66 22.67 -42.32 22.34 -43 22 C-42.01 21.67 -41.02 21.34 -40 21 C-40 20.34 -40 19.68 -40 19 C-36.16919347 15.47565799 -31.22148252 13 -26 13 C-26 12.34 -26 11.68 -26 11 C-24.35 10.67 -22.7 10.34 -21 10 C-21 9.34 -21 8.68 -21 8 C-20.01 8 -19.02 8 -18 8 C-18 7.34 -18 6.68 -18 6 C-16.3767313 5.3291288 -14.75132422 4.66342971 -13.125 4 C-12.22007812 3.62875 -11.31515625 3.2575 -10.3828125 2.875 C-8 2 -8 2 -6 2 C-6 1.34 -6 0.68 -6 0 C-3 -1 -3 -1 0 0 Z " fill="#B0CAE1" transform="translate(145,73)"/>
<path d="M0 0 C-9.49965376 6.43524932 -18.68805646 6.42259334 -29.67529297 6.28125 C-32.12613186 6.24998556 -34.57632465 6.24025627 -37.02734375 6.234375 C-38.60417442 6.22520633 -40.18099863 6.21483099 -41.7578125 6.203125 C-42.48090607 6.19887512 -43.20399963 6.19462524 -43.94900513 6.19024658 C-51.04885114 6.09155571 -56.75268056 5.50459383 -63 2 C-59.94959174 0.47479587 -57.19758955 1.71476962 -54 2.42578125 C-44.95441166 4.27661788 -36.1970041 4.34501009 -27 4.1875 C-25.43490901 4.17239483 -23.86980358 4.15871694 -22.3046875 4.14648438 C-18.53608947 4.11401139 -14.7682135 4.06256826 -11 4 C-11 3.34 -11 2.68 -11 2 C-9.54494642 1.47007308 -8.08581873 0.9513211 -6.625 0.4375 C-5.81289063 0.14746094 -5.00078125 -0.14257812 -4.1640625 -0.44140625 C-2 -1 -2 -1 0 0 Z " fill="#A5BADA" transform="translate(668,199)"/>
<path d="M0 0 C0.66 0.33 1.32 0.66 2 1 C-1.31925459 4.76182186 -5.22909362 5.83161477 -10 7 C-13.5625 7.1875 -13.5625 7.1875 -16 7 C-16 7.66 -16 8.32 -16 9 C-20.08926849 9.0750148 -24.17826207 9.12900317 -28.26806641 9.16479492 C-29.65485627 9.17973947 -31.04160007 9.20010278 -32.42822266 9.22631836 C-40.72577058 9.3790891 -48.19066805 9.09696458 -56 6 C-51.61322632 4.81345596 -48.48920796 5.26406427 -44 6 C-43.67 6.33 -43.34 6.66 -43 7 C-28.09294071 8.18996845 -12.97043902 8.07049539 0 0 Z " fill="#A2B8D8" transform="translate(799,196)"/>
<path d="M0 0 C3.3 0.33 6.6 0.66 10 1 C10 1.66 10 2.32 10 3 C11.32 3 12.64 3 14 3 C14 3.66 14 4.32 14 5 C18.29 5.33 22.58 5.66 27 6 C27 6.66 27 7.32 27 8 C27.9075 8.061875 28.815 8.12375 29.75 8.1875 C33 9 33 9 35.3125 11.0625 C37.80729722 15.40529516 38.4404462 19.48316456 37.5625 24.5 C37.2840625 25.2425 37.2840625 25.2425 37 26 C36.34 25.67 35.68 25.34 35 25 C35.03480469 24.32453125 35.06960938 23.6490625 35.10546875 22.953125 C35.14607422 21.61507812 35.14607422 21.61507812 35.1875 20.25 C35.22230469 19.36828125 35.25710938 18.4865625 35.29296875 17.578125 C34.93912362 14.46428784 34.20500535 13.20500535 32 11 C29.97993559 10.10594825 29.97993559 10.10594825 27.8125 9.75 C26.554375 9.5025 25.29625 9.255 24 9 C24 8.34 24 7.68 24 7 C23.28714844 6.95101562 22.57429687 6.90203125 21.83984375 6.8515625 C16.29491509 6.41871477 11.27913551 5.75971184 6 4 C6 3.34 6 2.68 6 2 C3.03 1.505 3.03 1.505 0 1 C0 0.67 0 0.34 0 0 Z " fill="#B3C4DF" transform="translate(622,150)"/>
<path d="M0 0 C1.37520651 3.82001808 0.74051523 7.07526927 0 11 C-0.33 11.33 -0.66 11.66 -1 12 C-1.36760731 14.32817964 -1.70241581 16.6618385 -2 19 C-5.50776784 20.60355101 -8.14354879 21.22036864 -12 21 C-12 21.66 -12 22.32 -12 23 C-19.59 23 -27.18 23 -35 23 C-35.33 22.34 -35.66 21.68 -36 21 C-34.88882812 21.02320313 -33.77765625 21.04640625 -32.6328125 21.0703125 C-21.76634879 21.23710409 -21.76634879 21.23710409 -11.078125 19.4375 C-9 19 -9 19 -4 19 C-3.67 15.37 -3.34 11.74 -3 8 C-2.34 8 -1.68 8 -1 8 C-0.67 5.36 -0.34 2.72 0 0 Z " fill="#A7BBDA" transform="translate(1474,158)"/>
<path d="M0 0 C19.14 0 38.28 0 58 0 C58 0.33 58 0.66 58 1 C56.99188766 1.01213028 56.99188766 1.01213028 55.96340942 1.02450562 C48.988267 1.11035284 42.01341531 1.20984703 35.03857422 1.31738281 C32.43315501 1.35574082 29.8276816 1.39058145 27.22216797 1.421875 C23.48385197 1.46737751 19.74591135 1.52539626 16.0078125 1.5859375 C14.83695099 1.59748871 13.66608948 1.60903992 12.45974731 1.62094116 C10.838293 1.6507457 10.838293 1.6507457 9.18408203 1.68115234 C7.75178757 1.70113785 7.75178757 1.70113785 6.29055786 1.7215271 C3.80397353 1.78495932 3.80397353 1.78495932 2 4 C1.28591666 5.98356483 0.61382258 7.98315437 0 10 C-1.36948916 6.04369799 -0.77791742 4.66750453 0 0 Z " fill="#E5EBF4" transform="translate(1807,152)"/>
<path d="M0 0 C0.75522949 -0.01353516 1.51045898 -0.02707031 2.28857422 -0.04101562 C7.77551418 0.00191631 11.8972303 1.21243253 16.9375 3.375 C16.9375 4.035 16.9375 4.695 16.9375 5.375 C17.88625 5.478125 18.835 5.58125 19.8125 5.6875 C22.9375 6.375 22.9375 6.375 24.9375 9.375 C21.9675 8.385 18.9975 7.395 15.9375 6.375 C15.9375 5.715 15.9375 5.055 15.9375 4.375 C14.2875 4.375 12.6375 4.375 10.9375 4.375 C10.9375 3.715 10.9375 3.055 10.9375 2.375 C7.04110004 2.48518673 3.14563907 2.61574478 -0.75 2.75 C-1.85279297 2.7809375 -2.95558594 2.811875 -4.09179688 2.84375 C-5.6918457 2.90175781 -5.6918457 2.90175781 -7.32421875 2.9609375 C-8.30350342 2.9923584 -9.28278809 3.0237793 -10.29174805 3.05615234 C-13.18672801 3.38929569 -15.42022167 4.17300587 -18.0625 5.375 C-18.0625 4.715 -18.0625 4.055 -18.0625 3.375 C-11.98178072 0.6724581 -6.57275584 0.04849748 0 0 Z " fill="#ABBEDC" transform="translate(768.0625,101.625)"/>
<path d="M0 0 C20.46 0 40.92 0 62 0 C60.02 2.97 60.02 2.97 58 6 C57.505 5.01 57.505 5.01 57 4 C57.33 3.01 57.66 2.02 58 1 C38.86 1 19.72 1 0 1 C0 0.67 0 0.34 0 0 Z " fill="#EFF2F8" transform="translate(1667,104)"/>
<path d="M0 0 C0.99 0.495 0.99 0.495 2 1 C2 2.32 2 3.64 2 5 C2.66 5 3.32 5 4 5 C4.13277344 5.99902344 4.26554687 6.99804688 4.40234375 8.02734375 C4.57894531 9.31769531 4.75554687 10.60804688 4.9375 11.9375 C5.11152344 13.22527344 5.28554687 14.51304687 5.46484375 15.83984375 C5.66162423 18.85466313 5.66162423 18.85466313 7 20 C7.23427778 22.01594582 7.41336124 24.038474 7.5625 26.0625 C7.64628906 27.16722656 7.73007813 28.27195313 7.81640625 29.41015625 C7.87699219 30.26480469 7.93757813 31.11945313 8 32 C8.66 32 9.32 32 10 32 C10.33 34.97 10.66 37.94 11 41 C9 40 9 40 8.1484375 37.453125 C7.89320312 36.39609375 7.63796875 35.3390625 7.375 34.25 C7.11460938 33.20328125 6.85421875 32.1565625 6.5859375 31.078125 C6.05464356 28.28706084 5.8847319 25.82930789 6 23 C5.34 23 4.68 23 4 23 C3.80083984 21.60974609 3.80083984 21.60974609 3.59765625 20.19140625 C3.42105469 18.99386719 3.24445313 17.79632813 3.0625 16.5625 C2.88847656 15.36753906 2.71445313 14.17257813 2.53515625 12.94140625 C2.31014787 10.12044324 2.31014787 10.12044324 1 9 C0.76807135 7.48530552 0.58784762 5.96245438 0.4375 4.4375 C0.35371094 3.61121094 0.26992187 2.78492188 0.18359375 1.93359375 C0.12300781 1.29550781 0.06242187 0.65742188 0 0 Z " fill="#98B0D4" transform="translate(1622,134)"/>
<path d="M0 0 C2 1 2 1 3.08642578 3.24560547 C5.7600307 11.3064314 5.15808752 20.47076994 5.125 28.875 C5.12886719 29.88046875 5.13273437 30.8859375 5.13671875 31.921875 C5.13542969 32.89382812 5.13414062 33.86578125 5.1328125 34.8671875 C5.13168457 35.73456543 5.13055664 36.60194336 5.12939453 37.49560547 C4.99577024 40.08186573 4.56932478 42.47676613 4 45 C3.67 45 3.34 45 3 45 C3.00785522 44.04130005 3.00785522 44.04130005 3.01586914 43.06323242 C3.0369427 40.10466537 3.0497552 37.14611421 3.0625 34.1875 C3.07087891 33.18267578 3.07925781 32.17785156 3.08789062 31.14257812 C3.1177863 21.84502231 2.6438715 12.82526233 0.40234375 3.77734375 C0 2 0 2 0 0 Z " fill="#A5B0D4" transform="translate(361,120)"/>
<path d="M0 0 C1.16257324 0.01047363 2.32514648 0.02094727 3.52294922 0.03173828 C5.40820312 0.04140625 5.40820312 0.04140625 7.33154297 0.05126953 C9.30960938 0.07640625 9.30960938 0.07640625 11.32763672 0.10205078 C12.66747393 0.11208096 14.00731823 0.12120674 15.34716797 0.12939453 C18.63250244 0.15303003 21.91748137 0.18597844 25.20263672 0.22705078 C25.20263672 0.88705078 25.20263672 1.54705078 25.20263672 2.22705078 C15.96263672 2.22705078 6.72263672 2.22705078 -2.79736328 2.22705078 C-3.12736328 3.21705078 -3.45736328 4.20705078 -3.79736328 5.22705078 C-4.78736328 5.55705078 -5.77736328 5.88705078 -6.79736328 6.22705078 C-4.04460566 0.32828445 -4.04460566 0.32828445 0 0 Z " fill="#7696C6" transform="translate(1583.79736328125,79.77294921875)"/>
<path d="M0 0 C1.13571576 2.8392894 0.98369506 4.05271931 0.0625 7.03125 C-1.32057666 11.62054983 -1.45106678 16.17245457 -1.625 20.9375 C-1.66367187 21.81212891 -1.70234375 22.68675781 -1.7421875 23.58789062 C-1.8356107 25.72494631 -1.91885398 27.86244294 -2 30 C-1.34 30 -0.68 30 0 30 C0.33 33.96 0.66 37.92 1 42 C-2.05500529 38.94499471 -2.91659486 36.1526949 -3.22705078 31.86206055 C-3.21657715 30.71519775 -3.20610352 29.56833496 -3.1953125 28.38671875 C-3.18886719 27.13955078 -3.18242188 25.89238281 -3.17578125 24.60742188 C-3.15902344 23.31384766 -3.14226563 22.02027344 -3.125 20.6875 C-3.11597656 19.37458984 -3.10695313 18.06167969 -3.09765625 16.70898438 C-3.07411797 13.47247087 -3.0412352 10.23632851 -3 7 C-2.34 7 -1.68 7 -1 7 C-0.67 4.69 -0.34 2.38 0 0 Z " fill="#8EA8D0" transform="translate(703,121)"/>
<path d="M0 0 C0.70382812 0.144375 1.40765625 0.28875 2.1328125 0.4375 C10.10234454 1.93568879 17.89235556 2.49733054 26 2 C26.33 1.67 26.66 1.34 27 1 C28.68183948 0.76712992 30.3712416 0.58735834 32.0625 0.4375 C32.98160156 0.35371094 33.90070312 0.26992187 34.84765625 0.18359375 C35.55792969 0.12300781 36.26820313 0.06242188 37 0 C36.67 0.66 36.34 1.32 36 2 C34.68 2 33.36 2 32 2 C32 2.66 32 3.32 32 4 C23.42 4 14.84 4 6 4 C6 3.34 6 2.68 6 2 C4.35 2 2.7 2 1 2 C0.67 1.34 0.34 0.68 0 0 Z " fill="#8FA9D0" transform="translate(617,179)"/>
<path d="M0 0 C0 0.66 0 1.32 0 2 C-0.99 2 -1.98 2 -3 2 C-3 2.66 -3 3.32 -3 4 C-3.66 4 -4.32 4 -5 4 C-5.2371875 4.56203125 -5.474375 5.1240625 -5.71875 5.703125 C-7.28947697 8.51894042 -9.21471464 10.47955416 -11.5 12.75 C-12.69109375 13.94882813 -12.69109375 13.94882813 -13.90625 15.171875 C-16 17 -16 17 -18 17 C-18.33 17.99 -18.66 18.98 -19 20 C-19.33 19.34 -19.66 18.68 -20 18 C-19.67 17.34 -19.34 16.68 -19 16 C-18.34 16 -17.68 16 -17 16 C-16.773125 15.46375 -16.54625 14.9275 -16.3125 14.375 C-13.79385089 9.81744447 -10.45047772 5.76236548 -6 3 C-5.34 3 -4.68 3 -4 3 C-4 2.34 -4 1.68 -4 1 C-2 0 -2 0 0 0 Z " fill="#7F9DCA" transform="translate(1418,91)"/>
<path d="M0 0 C0 0.66 0 1.32 0 2 C-0.99 2 -1.98 2 -3 2 C-3.20625 2.53625 -3.4125 3.0725 -3.625 3.625 C-5.53250426 6.91978009 -8.04819384 9.59363628 -11 12 C-11.66 12 -12.32 12 -13 12 C-13 12.99 -13 13.98 -13 15 C-13.99 15.495 -13.99 15.495 -15 16 C-15.65555119 18.52733235 -15.65555119 18.52733235 -16 21 C-16.66 20.67 -17.32 20.34 -18 20 C-16.94124926 16.59687262 -15.99097846 13.98646769 -14 11 C-13.34 11 -12.68 11 -12 11 C-11.9175 10.4225 -11.835 9.845 -11.75 9.25 C-10.774018 6.32205399 -9.36488777 4.94755463 -7 3 C-6.01 3 -5.02 3 -4 3 C-4 2.34 -4 1.68 -4 1 C-2 0 -2 0 0 0 Z " fill="#C3D1E6" transform="translate(749,107)"/>
<path d="M0 0 C0 0.66 0 1.32 0 2 C-0.99 2 -1.98 2 -3 2 C-3 2.99 -3 3.98 -3 5 C-0.36 5.33 2.28 5.66 5 6 C5 6.66 5 7.32 5 8 C6.11375 8.433125 6.11375 8.433125 7.25 8.875 C9.56739797 9.82302644 11.77917115 10.84845911 14 12 C12 13 12 13 9.43359375 12.29296875 C8.44488281 11.92816406 7.45617187 11.56335938 6.4375 11.1875 C5.44621094 10.83042969 4.45492188 10.47335938 3.43359375 10.10546875 C1 9 1 9 0 7 C-2.02463255 6.34786708 -2.02463255 6.34786708 -4 6 C-4.33 4.68 -4.66 3.36 -5 2 C-2 0 -2 0 0 0 Z " fill="#B2CBE2" transform="translate(11,145)"/>
<path d="M0 0 C-10.4 6 -10.4 6 -14 6 C-14 6.66 -14 7.32 -14 8 C-20.75 12 -20.75 12 -23 12 C-23 11.34 -23 10.68 -23 10 C-16.375 6.125 -16.375 6.125 -13 5 C-13 4.34 -13 3.68 -13 3 C-11.40084119 2.30093058 -9.79544955 1.61610532 -8.1875 0.9375 C-7.29417969 0.55464844 -6.40085938 0.17179687 -5.48046875 -0.22265625 C-3 -1 -3 -1 0 0 Z " fill="#88A4CC" transform="translate(247,17)"/>
<path d="M0 0 C0.33 0.66 0.66 1.32 1 2 C0.01 2 -0.98 2 -2 2 C-2.33 2.99 -2.66 3.98 -3 5 C-6.4934597 6.74672985 -9.06845568 8 -13 8 C-13 8.66 -13 9.32 -13 10 C-14.6796875 11.32421875 -14.6796875 11.32421875 -16.875 12.6875 C-17.95394531 13.37392578 -17.95394531 13.37392578 -19.0546875 14.07421875 C-20.01761719 14.53248047 -20.01761719 14.53248047 -21 15 C-21.66 14.67 -22.32 14.34 -23 14 C-21.625 12.5 -21.625 12.5 -20 11 C-19.34 11 -18.68 11 -18 11 C-18 10.34 -18 9.68 -18 9 C-17.28714844 8.68546875 -16.57429687 8.3709375 -15.83984375 8.046875 C-10.38146956 5.60787065 -5.12693294 3.07615977 0 0 Z " fill="#98B5D6" transform="translate(200,40)"/>
<path d="M0 0 C0.33 0 0.66 0 1 0 C1.02578125 0.97839844 1.0515625 1.95679688 1.078125 2.96484375 C1.38105879 9.96674515 1.69946076 15.94698829 5.2578125 22.16796875 C6.19555763 24.48271857 5.81060423 25.68618665 5 28 C2.23776722 25.23776722 2.42143709 22.79293383 2 19 C1.34 19 0.68 19 0 19 C0 12.73 0 6.46 0 0 Z " fill="#9CADD2" transform="translate(258,142)"/>
<path d="M0 0 C-0.56847656 0.21914062 -1.13695312 0.43828125 -1.72265625 0.6640625 C-8.82378801 3.58038706 -13.65223773 7.60420393 -19 13 C-17.39112383 6.7107568 -14.32988263 3.55325509 -9 0 C-5.55625563 -0.97131252 -3.40538196 -0.96160467 0 0 Z " fill="#9FC3DC" transform="translate(211,113)"/>
<path d="M0 0 C1.43088528 2.86177057 0.59991697 4.93375773 0 8 C-0.66 8 -1.32 8 -2 8 C-2 13.94 -2 19.88 -2 26 C-1.34 26 -0.68 26 0 26 C0 27.65 0 29.3 0 31 C-2.68105978 27.93599507 -3.38264931 26.026839 -3.3984375 21.97265625 C-3.40230469 21.01552734 -3.40617187 20.05839844 -3.41015625 19.07226562 C-3.39855469 18.07904297 -3.38695312 17.08582031 -3.375 16.0625 C-3.38660156 15.07314453 -3.39820313 14.08378906 -3.41015625 13.06445312 C-3.37411749 4.13284762 -3.37411749 4.13284762 0 0 Z " fill="#B8C8E1" transform="translate(1418,132)"/>
<path d="M0 0 C1.32 0.33 2.64 0.66 4 1 C4.33 2.32 4.66 3.64 5 5 C5.66 5 6.32 5 7 5 C7 5.66 7 6.32 7 7 C14.59 7 22.18 7 30 7 C30 7.33 30 7.66 30 8 C22.08 8 14.16 8 6 8 C6 7.34 6 6.68 6 6 C5.38125 5.7525 4.7625 5.505 4.125 5.25 C1.64931313 3.79371361 1.04874998 2.62187494 0 0 Z " fill="#7A99C8" transform="translate(1283,195)"/>
<path d="M0 0 C-2.39411837 1.29493195 -4.7901788 2.58602172 -7.1875 3.875 C-8.19780273 4.42220703 -8.19780273 4.42220703 -9.22851562 4.98046875 C-12.7566128 6.87359406 -16.23455133 8.61080534 -20 10 C-19.67 9.34 -19.34 8.68 -19 8 C-18.34 8 -17.68 8 -17 8 C-17 7.34 -17 6.68 -17 6 C-14.08864782 3.37840325 -11.03364571 2.07145155 -7.375 0.75 C-6.41335937 0.39421875 -5.45171875 0.0384375 -4.4609375 -0.328125 C-2 -1 -2 -1 0 0 Z " fill="#99BCD8" transform="translate(122,86)"/>
<path d="M0 0 C0.99 0.495 0.99 0.495 2 1 C2 1.99 2 2.98 2 4 C2.66 4 3.32 4 4 4 C4 11.59 4 19.18 4 27 C3.34 27 2.68 27 2 27 C2.01047363 26.44538086 2.02094727 25.89076172 2.03173828 25.31933594 C2.07342004 22.79627041 2.09936438 20.27327747 2.125 17.75 C2.14175781 16.87730469 2.15851562 16.00460938 2.17578125 15.10546875 C2.18222656 14.26113281 2.18867187 13.41679687 2.1953125 12.546875 C2.20578613 11.77182617 2.21625977 10.99677734 2.22705078 10.19824219 C1.97184397 7.7274012 1.10641038 6.20188245 0 4 C0 2.68 0 1.36 0 0 Z " fill="#96AED3" transform="translate(684,151)"/>
<path d="M0 0 C1.97956441 0.14033111 3.95865141 0.2874123 5.9375 0.4375 C7.03964844 0.51871094 8.14179687 0.59992188 9.27734375 0.68359375 C12 1 12 1 13 2 C15.34987262 2.23527773 17.70556039 2.41386417 20.0625 2.5625 C21.35285156 2.64628906 22.64320313 2.73007813 23.97265625 2.81640625 C25.47119141 2.90728516 25.47119141 2.90728516 27 3 C27 3.33 27 3.66 27 4 C8.65957447 4.57446809 8.65957447 4.57446809 0 1 C0 0.67 0 0.34 0 0 Z " fill="#88A4CD" transform="translate(743,201)"/>
<path d="M0 0 C0.33 0.66 0.66 1.32 1 2 C0.690625 2.78375 0.38125 3.5675 0.0625 4.375 C-1.96127822 11.27965512 -1.55592973 18.99831622 0 26 C-0.66 26 -1.32 26 -2 26 C-3.14926356 21.86299666 -3.22083647 17.83131133 -3.25 13.5625 C-3.270625 12.81162109 -3.29125 12.06074219 -3.3125 11.28710938 C-3.34504833 6.66117753 -2.8894668 3.82474157 0 0 Z " fill="#A9B7D7" transform="translate(279,136)"/>
<path d="M0 0 C0.66 0 1.32 0 2 0 C1.64999003 7.24158565 0.94397591 13.34405447 -2 20 C-3.30102931 15.67941758 -2.72449924 12.41944536 -2 8 C-1.67 7.67 -1.34 7.34 -1 7 C-0.63239269 4.67182036 -0.29758419 2.3381615 0 0 Z " fill="#A0B6D8" transform="translate(1500,152)"/>
<path d="M0 0 C0.66 0.33 1.32 0.66 2 1 C-3.43174785 5.67382954 -7.65306677 9.14570544 -15 10 C-15 9.34 -15 8.68 -15 8 C-9.375 5 -9.375 5 -6 5 C-6 4.34 -6 3.68 -6 3 C-4.03533587 1.93224776 -2.03144641 0.93446535 0 0 Z " fill="#A6C0DC" transform="translate(177,52)"/>
<path d="M0 0 C1.48199902 0.44909061 2.96055236 0.90956564 4.4375 1.375 C5.26121094 1.63023437 6.08492187 1.88546875 6.93359375 2.1484375 C9 3 9 3 10 5 C12.02463255 5.65213292 12.02463255 5.65213292 14 6 C14 6.66 14 7.32 14 8 C14.99 8 15.98 8 17 8 C17 8.66 17 9.32 17 10 C14.03 9.505 14.03 9.505 11 9 C11 8.34 11 7.68 11 7 C10.29875 6.7525 9.5975 6.505 8.875 6.25 C5.61912106 4.83440046 2.87631441 3.07362202 0 1 C0 0.67 0 0.34 0 0 Z " fill="#8FA7CE" transform="translate(132,217)"/>
<path d="M0 0 C0.33 0 0.66 0 1 0 C1.24372825 6.94625504 0.46517399 12.8121893 -3 19 C-3.38614349 12.1781317 -2.00865708 6.50422293 0 0 Z " fill="#8AA5CE" transform="translate(1647,184)"/>
<path d="M0 0 C2 1 2 1 2.81640625 3.15234375 C4.50025331 9.43811837 5.59131964 15.50339149 6 22 C5.34 22 4.68 22 4 22 C3.86722656 21.14535156 3.73445313 20.29070312 3.59765625 19.41015625 C3.42105469 18.30542969 3.24445313 17.20070313 3.0625 16.0625 C2.80146484 14.40927734 2.80146484 14.40927734 2.53515625 12.72265625 C2.28154864 10.09573071 2.28154864 10.09573071 1 9 C0.76807135 7.48530552 0.58784762 5.96245438 0.4375 4.4375 C0.35371094 3.61121094 0.26992187 2.78492187 0.18359375 1.93359375 C0.12300781 1.29550781 0.06242187 0.65742187 0 0 Z " fill="#96AED3" transform="translate(1614,102)"/>
<path d="M0 0 C0 0.66 0 1.32 0 2 C-0.96099609 2.14695313 -0.96099609 2.14695313 -1.94140625 2.296875 C-6.36687217 3.06193319 -10.13674462 3.82707547 -14 6.1875 C-15.485 7.0846875 -15.485 7.0846875 -17 8 C-17.66 7.67 -18.32 7.34 -19 7 C-14.34454921 1.8400886 -6.81238514 0 0 0 Z " fill="#A3BAD9" transform="translate(230,48)"/>
<path d="M0 0 C0.66 0 1.32 0 2 0 C1.36126407 11.14484079 1.36126407 11.14484079 -2 16 C-4.1875 16.875 -4.1875 16.875 -6 17 C-5.525625 16.649375 -5.05125 16.29875 -4.5625 15.9375 C-2.30988137 13.1442529 -2.41197146 10.53118391 -2 7 C-1.41239656 4.63581426 -0.71349839 2.3307614 0 0 Z " fill="#89A5CE" transform="translate(1495,176)"/>
<path d="M0 0 C1.32 0 2.64 0 4 0 C4.33 4.62 4.66 9.24 5 14 C2.60236815 11.60236815 2.65719414 10.66726502 2.375 7.375 C2.30023437 6.55773437 2.22546875 5.74046875 2.1484375 4.8984375 C2.07496094 3.95871094 2.07496094 3.95871094 2 3 C0.35 4.65 -1.3 6.3 -3 8 C-2.690625 7.236875 -2.38125 6.47375 -2.0625 5.6875 C-1.32106407 3.81210323 -0.63771783 1.91315348 0 0 Z " fill="#A0B6D7" transform="translate(1588,108)"/>
<path d="M0 0 C0.33 0 0.66 0 1 0 C0.67 3.96 0.34 7.92 0 12 C-0.66 12 -1.32 12 -2 12 C-2.33 14.64 -2.66 17.28 -3 20 C-5.40351022 13.32358272 -2.27912522 6.32134731 0 0 Z " fill="#BFCEE4" transform="translate(1887,80)"/>
<path d="M0 0 C6.19518473 0.41588046 11.26689311 1.60251894 17 4 C11.74477575 5.51460611 7.52650481 4.69386582 2.5625 2.4375 C1.716875 1.963125 0.87125 1.48875 0 1 C0 0.67 0 0.34 0 0 Z " fill="#BCCCE3" transform="translate(605,200)"/>
<path d="M0 0 C0.33 0 0.66 0 1 0 C0.48594831 4.96916636 -0.23384882 9.29026351 -2 14 C-2.66 14 -3.32 14 -4 14 C-3.67 11.03 -3.34 8.06 -3 5 C-2.34 5 -1.68 5 -1 5 C-0.67 3.35 -0.34 1.7 0 0 Z " fill="#849CC9" transform="translate(263,128)"/>
<path d="M0 0 C0.66 0.33 1.32 0.66 2 1 C1.34 3.97 0.68 6.94 0 10 C-0.66 10 -1.32 10 -2 10 C-2.33 11.65 -2.66 13.3 -3 15 C-4.10844919 11.67465243 -3.84454356 9.37817425 -3 6 C-2.34 6 -1.68 6 -1 6 C-0.67 4.02 -0.34 2.04 0 0 Z " fill="#A0BAD9" transform="translate(165,102)"/>
<path d="M0 0 C2.475 0.99 2.475 0.99 5 2 C4.38461538 9.50769231 4.38461538 9.50769231 2.4375 12 C1.963125 12.33 1.48875 12.66 1 13 C1 11.35 1 9.7 1 8 C1.66 8 2.32 8 3 8 C3 6.02 3 4.04 3 2 C2.01 2 1.02 2 0 2 C0 1.34 0 0.68 0 0 Z " fill="#A7BBDA" transform="translate(678,86)"/>
<path d="M0 0 C0.99 0.495 0.99 0.495 2 1 C2 2.32 2 3.64 2 5 C2.66 5 3.32 5 4 5 C4.33 7.97 4.66 10.94 5 14 C2.41877791 12.70938896 2.08128544 11.64314217 1 9 C0.5859375 6.640625 0.5859375 6.640625 0.375 4.25 C0.30023437 3.45078125 0.22546875 2.6515625 0.1484375 1.828125 C0.09945313 1.22484375 0.05046875 0.6215625 0 0 Z " fill="#B6C7E0" transform="translate(1622,134)"/>
<path d="M0 0 C1.73030291 0.28484846 3.45920714 0.57819938 5.1875 0.875 C6.15042969 1.03742188 7.11335937 1.19984375 8.10546875 1.3671875 C10.91032604 1.98039517 13.37224747 2.85666343 16 4 C16 4.33 16 4.66 16 5 C9.741346 5.5326514 5.54891215 3.81849506 0 1 C0 0.67 0 0.34 0 0 Z " fill="#92B0D3" transform="translate(209,138)"/>
<path d="M0 0 C-1.95245185 1.19714555 -3.91214997 2.38248074 -5.875 3.5625 C-6.96554688 4.22378906 -8.05609375 4.88507813 -9.1796875 5.56640625 C-10.57574219 6.27603516 -10.57574219 6.27603516 -12 7 C-12.66 6.67 -13.32 6.34 -14 6 C-11.60490662 3.10067643 -9.68754757 2.49831724 -6 2 C-6 1.34 -6 0.68 -6 0 C-3 -1 -3 -1 0 0 Z " fill="#95B7D6" transform="translate(145,73)"/>
<path d="M0 0 C2 1 2 1 3.0625 3.5 C4.17578822 7.65627604 4.6387468 11.72200161 5 16 C3 15 3 15 1.9375 12.5 C0.82421178 8.34372396 0.3612532 4.27799839 0 0 Z " fill="#97AFD4" transform="translate(1609,82)"/>
<path d="M0 0 C-1.29299694 2.88437779 -2.65941363 4.87219421 -5 7 C-5.99 6.67 -6.98 6.34 -8 6 C-3.38461538 0 -3.38461538 0 0 0 Z " fill="#7B9AC8" transform="translate(603,89)"/>
<path d="M0 0 C2.97 0 5.94 0 9 0 C5.87879024 1.56060488 3.6835326 2.45165579 0.375 3.1875 C-0.40101562 3.36667969 -1.17703125 3.54585938 -1.9765625 3.73046875 C-4 4 -4 4 -6 3 C-5 2 -5 2 -2.4375 1.9375 C-1.2309375 1.9684375 -1.2309375 1.9684375 0 2 C0 1.34 0 0.68 0 0 Z " fill="#AFC2DE" transform="translate(1440,79)"/>
<path d="M0 0 C0.33 0.66 0.66 1.32 1 2 C0.22265625 3.9453125 0.22265625 3.9453125 -0.9375 6.125 C-1.31777344 6.84945312 -1.69804688 7.57390625 -2.08984375 8.3203125 C-2.39019531 8.87460938 -2.69054688 9.42890625 -3 10 C-3.66 10 -4.32 10 -5 10 C-5.33 10.99 -5.66 11.98 -6 13 C-6 11.68 -6 10.36 -6 9 C-5.34 9 -4.68 9 -4 9 C-3.67 7.02 -3.34 5.04 -3 3 C-2.34 3 -1.68 3 -1 3 C-0.67 2.01 -0.34 1.02 0 0 Z " fill="#9DB3D6" transform="translate(1397,111)"/>
<path d="M0 0 C0.66 0.33 1.32 0.66 2 1 C-0.79196011 4.28465896 -4.23196817 6.01321958 -8 8 C-8.66 8 -9.32 8 -10 8 C-10 7.34 -10 6.68 -10 6 C-7.8125 4.5625 -7.8125 4.5625 -5 3 C-4.113125 2.4225 -3.22625 1.845 -2.3125 1.25 C-1.549375 0.8375 -0.78625 0.425 0 0 Z " fill="#8DABD0" transform="translate(206,57)"/>
<path d="M0 0 C0.66 0.33 1.32 0.66 2 1 C1.67 1.99 1.34 2.98 1 4 C0.34 4 -0.32 4 -1 4 C-1.33 4.99 -1.66 5.98 -2 7 C-4.0625 8.1875 -4.0625 8.1875 -6 9 C-5.67 7.68 -5.34 6.36 -5 5 C-4.34 5 -3.68 5 -3 5 C-2.67 4.01 -2.34 3.02 -2 2 C-1.34 2 -0.68 2 0 2 C0 1.34 0 0.68 0 0 Z " fill="#9FBAD9" transform="translate(183,76)"/>
<path d="M0 0 C0.99 0.33 1.98 0.66 3 1 C3 1.66 3 2.32 3 3 C3.66 3 4.32 3 5 3 C5.33 4.32 5.66 5.64 6 7 C6.66 7 7.32 7 8 7 C7.67 7.66 7.34 8.32 7 9 C6.01 8.34 5.02 7.68 4 7 C4 6.34 4 5.68 4 5 C3.01 4.67 2.02 4.34 1 4 C0.3125 1.9375 0.3125 1.9375 0 0 Z " fill="#94ADD3" transform="translate(1253,158)"/>
<path d="M0 0 C8.57142857 0.71428571 8.57142857 0.71428571 12 4 C7.24792529 4.43200679 4.21789302 2.98489083 0 1 C0 0.67 0 0.34 0 0 Z " fill="#A1B0D4" transform="translate(226,246)"/>
<path d="M0 0 C0.33 0.66 0.66 1.32 1 2 C-2.44615385 6.8 -2.44615385 6.8 -5.25 7.8125 C-6.11625 7.9053125 -6.11625 7.9053125 -7 8 C-7 7.34 -7 6.68 -7 6 C-5.46875 4.4921875 -5.46875 4.4921875 -3.5 2.875 C-2.8503125 2.33617187 -2.200625 1.79734375 -1.53125 1.2421875 C-1.0259375 0.83226562 -0.520625 0.42234375 0 0 Z " fill="#7A99C7" transform="translate(1685,147)"/>
<path d="M0 0 C0.66 0.33 1.32 0.66 2 1 C-0.31 3.64 -2.62 6.28 -5 9 C-5.33 8.34 -5.66 7.68 -6 7 C-4.31525278 3.63050557 -3.1808342 2.12055614 0 0 Z " fill="#8DB6D5" transform="translate(198,117)"/>
<path d="M0 0 C-3.98188718 1.71767682 -7.96479403 3.41037341 -12 5 C-12 4.34 -12 3.68 -12 3 C-11.34 3 -10.68 3 -10 3 C-10 2.34 -10 1.68 -10 1 C-8.71073008 0.63720544 -7.41846728 0.28503302 -6.125 -0.0625 C-5.40570312 -0.25972656 -4.68640625 -0.45695312 -3.9453125 -0.66015625 C-2 -1 -2 -1 0 0 Z " fill="#9CB3D5" transform="translate(1448,105)"/>
<path d="M0 0 C0.66 0.33 1.32 0.66 2 1 C1.7452486 2.31571603 1.47065859 3.62760376 1.1875 4.9375 C1.03667969 5.66839844 0.88585937 6.39929688 0.73046875 7.15234375 C0.48941406 7.76207031 0.24835938 8.37179688 0 9 C-0.99 9.33 -1.98 9.66 -3 10 C-2.39009109 6.44219804 -1.4216319 3.3171411 0 0 Z " fill="#A4BDDA" transform="translate(170,92)"/>
<path d="M0 0 C0.33 0.66 0.66 1.32 1 2 C-1.47812494 5.45167403 -2.79606135 7.23163306 -7 8 C-6.02133662 6.85373678 -5.04205413 5.70800212 -4.0625 4.5625 C-3.51722656 3.92441406 -2.97195313 3.28632813 -2.41015625 2.62890625 C-1.63204305 1.73008851 -0.84063472 0.84063472 0 0 Z " fill="#C2D0E5" transform="translate(1698,168)"/>
<path d="M0 0 C0.33 0.66 0.66 1.32 1 2 C-1.47812494 5.45167403 -2.79606135 7.23163306 -7 8 C-6.02133662 6.85373678 -5.04205413 5.70800212 -4.0625 4.5625 C-3.51722656 3.92441406 -2.97195313 3.28632813 -2.41015625 2.62890625 C-1.63204305 1.73008851 -0.84063472 0.84063472 0 0 Z " fill="#7897C7" transform="translate(1693,139)"/>
<path d="M0 0 C0.33 0.66 0.66 1.32 1 2 C-1.47812494 5.45167403 -2.79606135 7.23163306 -7 8 C-6.02133662 6.85373678 -5.04205413 5.70800212 -4.0625 4.5625 C-3.51722656 3.92441406 -2.97195313 3.28632813 -2.41015625 2.62890625 C-1.63204305 1.73008851 -0.84063472 0.84063472 0 0 Z " fill="#809DCA" transform="translate(1701,131)"/>
<path d="M0 0 C0.33 0.66 0.66 1.32 1 2 C-1.47812494 5.45167403 -2.79606135 7.23163306 -7 8 C-6.02133662 6.85373678 -5.04205413 5.70800212 -4.0625 4.5625 C-3.51722656 3.92441406 -2.97195313 3.28632812 -2.41015625 2.62890625 C-1.63204305 1.73008851 -0.84063472 0.84063472 0 0 Z " fill="#87A3CD" transform="translate(1709,123)"/>
<path d="M0 0 C0.33 0.66 0.66 1.32 1 2 C0.01 2 -0.98 2 -2 2 C-2.33 2.99 -2.66 3.98 -3 5 C-4.875 6.25 -4.875 6.25 -7 7 C-7.99 6.67 -8.98 6.34 -10 6 C-8.89932004 5.18278283 -7.79430269 4.37140549 -6.6875 3.5625 C-6.07261719 3.11003906 -5.45773438 2.65757813 -4.82421875 2.19140625 C-3 1 -3 1 0 0 Z " fill="#91AFD2" transform="translate(200,40)"/>
<path d="M0 0 C0.66 0.33 1.32 0.66 2 1 C-1.625 5.875 -1.625 5.875 -5 7 C-4.60196439 4.11424181 -4.20990931 3.17810487 -1.9375 1.25 C-1.298125 0.8375 -0.65875 0.425 0 0 Z " fill="#BDCCE4" transform="translate(1430,113)"/>
<path d="M0 0 C0.8353125 0.37125 0.8353125 0.37125 1.6875 0.75 C1.3575 1.41 1.0275 2.07 0.6875 2.75 C-1.96110427 3.34355614 -4.60447322 3.49209269 -7.3125 3.75 C-2.88173077 -0.31153846 -2.88173077 -0.31153846 0 0 Z " fill="#8AA5CE" transform="translate(743.3125,81.25)"/>
</svg>
